<svg xmlns="http://www.w3.org/2000/svg" width="23.072" height="27.679" viewBox="0 0 23.072 27.679">
    <g id="profile_full" transform="translate(0 0)">
        <path id="Path_1335"
            d="M539.386,159.4c.358.074.723.135,1.081.216a6.714,6.714,0,0,1,4.879,5.42,6.458,6.458,0,0,1-.953,4.6,6.531,6.531,0,0,1-5.21,3.081,6.654,6.654,0,0,1-5.507-10.961,6.6,6.6,0,0,1,3.7-2.216c.257-.054.514-.095.764-.135Z"
            transform="translate(-527.384 -159.4)" fill="#7856a3" />
        <path id="Path_1336"
            d="M473.927,371.774h-6.568a5.205,5.205,0,0,1-3.115-.885,4.1,4.1,0,0,1-1.791-3.075,14.341,14.341,0,0,1,.933-6.676,5.64,5.64,0,0,1,2.541-3.048,5.066,5.066,0,0,1,2.514-.608,1.936,1.936,0,0,1,.831.284c.419.23.8.514,1.21.764a6.144,6.144,0,0,0,6.92-.013c.324-.2.649-.392.953-.615a2.32,2.32,0,0,1,1.818-.378,5.115,5.115,0,0,1,3.919,2.811,11.594,11.594,0,0,1,1.264,4.487,21.908,21.908,0,0,1,.108,2.4,4.412,4.412,0,0,1-4.136,4.507,7.883,7.883,0,0,1-.892.047Z"
            transform="translate(-462.392 -344.095)" fill="#7856a3" />
    </g>
</svg>
