<svg xmlns="http://www.w3.org/2000/svg" width="21.95" height="27.679" viewBox="0 0 21.95 27.679">
    <path id="bag"
        d="M185.773,231.443c-.115-2.637-.254-5.282-.377-7.92-.108-2.245-.2-4.49-.308-6.736a2.727,2.727,0,0,0-2.03-2.66,6.241,6.241,0,0,0-1.315-.108c-.446-.015-.9,0-1.384,0a5.6,5.6,0,0,0-1.376-4.352,5.535,5.535,0,0,0-7.781-.507,5.578,5.578,0,0,0-1.884,4.859c-.715,0-1.376-.015-2.038,0a2.687,2.687,0,0,0-2.576,2.084,8.326,8.326,0,0,0-.131,1.461c-.131,2.645-.261,5.3-.384,7.943-.108,2.345-.208,4.683-.331,7.028a2.778,2.778,0,0,0,2.745,2.937q8.247.012,16.493,0a2.653,2.653,0,0,0,2.637-2.107A8.911,8.911,0,0,0,185.773,231.443Zm-13.118-21.068a3.476,3.476,0,0,1,3.983-.246,3.767,3.767,0,0,1,1.884,3.883h-7.351A3.753,3.753,0,0,1,172.656,210.375Zm7.658,8.435a4.507,4.507,0,0,1-.315,1.1,5.581,5.581,0,0,1-10.557-.83.958.958,0,0,1,.384-1.138.912.912,0,0,1,1.1.085,1.423,1.423,0,0,1,.338.615,3.691,3.691,0,0,0,7.151.154c.031-.1.046-.208.077-.308a.934.934,0,0,1,1.1-.661A.857.857,0,0,1,180.314,218.81Z"
        transform="translate(-163.856 -207.799)" fill="#7856a3" />
</svg>
