<svg xmlns="http://www.w3.org/2000/svg" width="30.264" height="27.679" viewBox="0 0 30.264 27.679">
    <g id="wallet_fill" transform="translate(-114.7 -221.085)">
        <path id="Path_1492"
            d="M145.056,290.623v3.664a1.437,1.437,0,0,0-.055.2,4.058,4.058,0,0,1-3.947,3.412q-11.121.012-22.243,0a4.042,4.042,0,0,1-3.774-2.726c-.1-.284-.158-.583-.236-.883V278.032a1.356,1.356,0,0,0,.055-.165,4.073,4.073,0,0,1,3.995-3.435q11.074-.012,22.156,0a4.061,4.061,0,0,1,3.821,2.75c.095.276.158.567.228.851v3.845a.335.335,0,0,0-.087-.016c-2.718,0-5.437-.047-8.147.016a4.364,4.364,0,0,0,.292,8.722c2.529.008,5.058,0,7.588,0Z"
            transform="translate(-0.092 -49.138)" fill="#7856a3" />
        <path id="Path_1493"
            d="M114.708,224.7c.039-.181.079-.362.126-.544a4.064,4.064,0,0,1,3.877-3.065q9.632-.012,19.257,0a3.934,3.934,0,0,1,3.459,2.009c.047.079.087.173.15.284h-.615q-11.051,0-22.093-.008a6.05,6.05,0,0,0-4.168,1.607C114.708,224.9,114.708,224.8,114.708,224.7Z"
            transform="translate(0)" fill="#7856a3" />
        <path id="Path_1494"
            d="M376.532,397.96c-.355.008-.709.016-1.064.016-2.285,0-4.562.008-6.847,0a2.459,2.459,0,1,1-.118-4.917c2.679-.008,5.35,0,8.029,0Zm-8.636-2.38a.989.989,0,1,0,1.978.008.989.989,0,0,0-.993-.993A.975.975,0,0,0,367.9,395.58Z"
            transform="translate(-231.568 -158.421)" fill="#7856a3" />
    </g>
</svg>
