<svg id="Home_full" data-name="Home full" xmlns="http://www.w3.org/2000/svg" width="27.675"
    height="27.679" viewBox="0 0 27.675 27.679">
    <path id="Path_1317"
        d="M396.2,315.606h-4.973a.953.953,0,0,1-.643-1.032c.011-2.059.005-4.119.005-6.184a1.362,1.362,0,0,0-1.481-1.476h-2.292a1.378,1.378,0,0,0-1.54,1.53c0,2.043-.005,4.086.005,6.13a.957.957,0,0,1-.643,1.032h-4.973c-.022-.011-.043-.038-.07-.038a3.029,3.029,0,0,1-2.54-3.113c.038-2.6.011-5.205.011-7.805v-.3a.579.579,0,0,0-.086-.027c-.135-.005-.27,0-.405-.005a2.49,2.49,0,0,1-2.195-1.389,5.56,5.56,0,0,1-.281-.778v-.757a3.264,3.264,0,0,1,.827-1.513q5.57-5.554,11.124-11.113a3.277,3.277,0,0,1,.54-.443,2.54,2.54,0,0,1,3.227.438q5.359,5.359,10.724,10.713a3.672,3.672,0,0,1,1.232,1.973v.649a1.193,1.193,0,0,0-.049.124,2.527,2.527,0,0,1-2.513,2.1h-.405v.362c0,2.676.005,5.346-.005,8.021a2.949,2.949,0,0,1-2.076,2.768C396.548,315.52,396.375,315.558,396.2,315.606Z"
        transform="translate(-374.1 -287.928)" fill="#7856a3" />
</svg>
