<svg xmlns="http://www.w3.org/2000/svg" width="33.348" height="29.315" viewBox="0 0 33.348 29.315">
    <g id="cart" transform="translate(-177.099 -291.025)">
        <path id="Path_1322"
            d="M210.446,296.174c-.235.782-.486,1.572-.712,2.354q-1.6,5.577-3.188,11.162a1.027,1.027,0,0,1-1.173.886q-8.209,0-16.418-.009a.617.617,0,0,0-.66.408,1,1,0,0,0,.99,1.555h16.061a1.657,1.657,0,0,1,.417.026.97.97,0,0,1-.208,1.92c-1.034.009-2.059,0-3.092,0H202.1c1.755.53,2.7,1.824,2.476,3.3a2.934,2.934,0,1,1-3.362-3.284h-8.9a2.991,2.991,0,0,1,2.424,3.249,2.934,2.934,0,0,1-5.829.009,2.987,2.987,0,0,1,2.38-3.275H189.3a2.937,2.937,0,0,1-3.049-2.319,2.7,2.7,0,0,1,.313-2.041,1.468,1.468,0,0,0,.122-1.277c-1.5-5.186-2.971-10.38-4.456-15.566-.026-.1-.061-.182-.1-.3h-2.675c-.452,0-.912.009-1.364,0a.974.974,0,1,1,.017-1.946c1.572-.009,3.145-.009,4.725,0a.984.984,0,0,1,1.025.825c.3,1.016.582,2.041.877,3.084h.426q12,0,24-.009a1.228,1.228,0,0,1,1.277.721Q210.446,295.913,210.446,296.174Z"
            transform="translate(0 0)" fill="#7856a3" />
    </g>
</svg>
