<svg xmlns="http://www.w3.org/2000/svg" width="26.159" height="23.445" viewBox="0 0 26.159 23.445">
  <path id="Path_4511" data-name="Path 4511" d="M1194.255,2098.318a7.541,7.541,0,0,1,6.4,3.252,7.544,7.544,0,0,1,6.405-3.252h.182a6.3,6.3,0,0,1,4.455,2.2,7.926,7.926,0,0,1,2.011,5.95c-.193,2.37-2.843,5.859-5.031,8.368a40.661,40.661,0,0,1-7.115,6.663,1.708,1.708,0,0,1-1.817,0,40.667,40.667,0,0,1-7.114-6.662c-2.188-2.509-4.837-6-5.03-8.368a7.924,7.924,0,0,1,2.01-5.949,6.3,6.3,0,0,1,4.456-2.2Zm6.4,4.886a1.272,1.272,0,0,1-1.012-.5c-1.638-2.107-3.1-2.891-5.393-2.891h-.158a4.809,4.809,0,0,0-3.369,1.71,6.419,6.419,0,0,0-1.625,4.82c.274,3.374,8.206,11.852,11.446,13.881a.209.209,0,0,0,.223,0c3.241-2.03,11.173-10.508,11.448-13.882a6.421,6.421,0,0,0-1.627-4.821,4.808,4.808,0,0,0-3.368-1.71h-.158c-2.293,0-3.755.784-5.394,2.892A1.272,1.272,0,0,1,1200.659,2103.2Z" transform="translate(-1187.58 -2098.318)" fill="#f2a818"/>
</svg>
