<svg id="Home_Border" data-name="Home Border" xmlns="http://www.w3.org/2000/svg" width="21.94"
    height="21.945" viewBox="0 0 21.94 21.945">
    <path id="Path_1316"
        d="M439.255,216.22a2.261,2.261,0,0,1-.6,1,2,2,0,0,1-1.36.547h-.357v.254c0,2.1,0,4.208,0,6.313a2.35,2.35,0,0,1-1.833,2.341,2.758,2.758,0,0,1-.594.065c-1.114,0-2.233,0-3.348,0a.663.663,0,0,1-.744-.74c0-1.648-.017-3.292.009-4.94a1.147,1.147,0,0,0-1.244-1.231c-.6.022-1.2,0-1.8,0a1.087,1.087,0,0,0-1.183,1.192v4.918c0,.559-.237.8-.8.8h-3.262a2.36,2.36,0,0,1-2.461-2.457c0-2.074,0-4.152,0-6.226v-.267c-.245-.022-.482-.022-.71-.065a1.925,1.925,0,0,1-1.54-1.338,1.953,1.953,0,0,1,.4-1.984c.065-.077.138-.146.207-.215q4.189-4.2,8.387-8.4a3.436,3.436,0,0,1,1.364-.994h1.033a3.412,3.412,0,0,1,1.321.951q4.131,4.137,8.266,8.266a2.954,2.954,0,0,1,.848,1.261Zm-7.552,9.234h2.719a1.1,1.1,0,0,0,1.226-1.231v-7a.665.665,0,0,1,.744-.74c.3,0,.6,0,.9,0a.717.717,0,0,0,.68-.529.819.819,0,0,0-.31-.856q-4.363-4.357-8.718-8.714a.78.78,0,0,0-1.3.009q-3.873,3.886-7.754,7.763c-.361.361-.723.714-1.076,1.08a.732.732,0,0,0,.521,1.252c.267,0,.529,0,.8,0,.589,0,.822.232.822.813v7a1.078,1.078,0,0,0,1.149,1.158h2.578c.069,0,.138-.009.219-.013v-.271c0-1.454-.013-2.9.009-4.359a2.281,2.281,0,0,1,2.078-2.225c.873-.06,1.76-.013,2.638-.009a.912.912,0,0,1,.189.026,2.355,2.355,0,0,1,1.885,2.345c.009,1.411,0,2.818,0,4.23Z"
        transform="translate(-417.315 -204.8)" fill="#7856a3" />
</svg>
