<svg id="cart_stroke" data-name="cart stroke" xmlns="http://www.w3.org/2000/svg" width="23.491"
    height="20.651" viewBox="0 0 23.491 20.651">
    <path id="Path_1321"
        d="M86.906,195.411a.878.878,0,0,1,.924-.514c1.01.018,2.02.006,3.029.006a.718.718,0,0,1,.82.63c.2.7.4,1.408.612,2.124h17.234a1.589,1.589,0,0,1,.343.018.7.7,0,0,1,.477.973c-.477,1.665-.955,3.335-1.432,5-.416,1.463-.838,2.919-1.255,4.382a.73.73,0,0,1-.857.643q-5.774,0-11.542-.006a.425.425,0,0,0-.459.288.707.707,0,0,0,.679,1.1h11.334a1.547,1.547,0,0,1,.294.018.684.684,0,0,1-.159,1.353c-.7.006-1.408,0-2.111,0h-.251a4.463,4.463,0,0,1,.734.343,2.282,2.282,0,0,1,.594.594,1.966,1.966,0,0,1,.3.753,2.272,2.272,0,0,1-.012.838,2.051,2.051,0,0,1-2.124,1.6,2.077,2.077,0,0,1-1.934-1.824,2.129,2.129,0,0,1,1.714-2.295H97.647a2.154,2.154,0,0,1,1.334.906,2.044,2.044,0,0,1,.312,1.573,2.065,2.065,0,0,1-4.07-.165,2.133,2.133,0,0,1,1.726-2.319H95.462a2.056,2.056,0,0,1-1.9-3.06,1.159,1.159,0,0,0,.092-.924c-1.059-3.654-2.093-7.307-3.14-10.967-.018-.061-.037-.116-.061-.2h-.337c-.765,0-1.53-.018-2.295.006a.87.87,0,0,1-.924-.514C86.906,195.656,86.906,195.533,86.906,195.411Zm21.9,3.635H92.689q1.184,4.14,2.356,8.237h11.408Q107.619,203.171,108.8,199.046ZM97.3,212.8a.686.686,0,1,0,.667.7A.7.7,0,0,0,97.3,212.8Zm7.6.7a.692.692,0,0,0-.673-.7.689.689,0,1,0,.673.7Z"
        transform="translate(-86.9 -194.896)" fill="#7856a3" />
</svg>
