<svg id="profile_border" data-name="profile border" xmlns="http://www.w3.org/2000/svg" width="18.3"
    height="21.945" viewBox="0 0 18.3 21.945">
    <path id="Path_1333"
        d="M384.225,851.148c-.257-.054-.514-.091-.766-.166a3.429,3.429,0,0,1-2.6-3.28,11.67,11.67,0,0,1,.761-4.957,4.584,4.584,0,0,1,2.031-2.454,4.018,4.018,0,0,1,2-.477,1.562,1.562,0,0,1,.654.225c.327.177.627.4.943.589a4.878,4.878,0,0,0,5.509-.005c.257-.155.514-.311.756-.488a1.838,1.838,0,0,1,1.442-.295,4.071,4.071,0,0,1,3.108,2.235,9.1,9.1,0,0,1,1,3.558,17.721,17.721,0,0,1,.086,1.924A3.509,3.509,0,0,1,395.9,851.1a1.339,1.339,0,0,0-.139.038Q389.994,851.15,384.225,851.148Zm5.766-1.286h0c1.817-.005,3.628.011,5.445-.011a2.288,2.288,0,0,0,2.422-2.487,16.6,16.6,0,0,0-.091-1.71,7.916,7.916,0,0,0-.82-2.931,2.763,2.763,0,0,0-2.369-1.624.544.544,0,0,0-.3.075c-.279.161-.541.343-.815.515a6.109,6.109,0,0,1-6.292.37c-.5-.247-.965-.584-1.447-.874a.445.445,0,0,0-.23-.091,2.623,2.623,0,0,0-1.817.75,4.182,4.182,0,0,0-.911,1.458,10.954,10.954,0,0,0-.632,4.314,2.121,2.121,0,0,0,1.083,1.881,2.98,2.98,0,0,0,1.543.359Q387.381,849.864,389.991,849.861Z"
        transform="translate(-380.84 -829.202)" fill="#7856a3" />
    <path id="Path_1334"
        d="M461.072,647.179a5.287,5.287,0,1,1-5.284-5.279A5.285,5.285,0,0,1,461.072,647.179Zm-5.289,4a4,4,0,1,0-4-4.009A3.993,3.993,0,0,0,455.783,651.182Z"
        transform="translate(-446.765 -641.9)" fill="#7856a3" />
</svg>
