<svg xmlns="http://www.w3.org/2000/svg" width="21.621" height="19.357" viewBox="0 0 21.621 19.357">
    <g id="wallet" transform="translate(-114.8 -224.925)">
        <path id="Path_1495"
            d="M114.8,241.7V227.509c.017-.056.034-.107.045-.163a2.915,2.915,0,0,1,2.822-2.416q6.893-.008,13.787,0a2.9,2.9,0,0,1,2.816,2.517.247.247,0,0,0,.191.231,2.869,2.869,0,0,1,1.791,1.78c.073.2.113.417.169.625V241.7a.974.974,0,0,0-.039.118,2.918,2.918,0,0,1-2.867,2.461q-7.907.008-15.808,0a2.9,2.9,0,0,1-2.76-2.011C114.884,242.084,114.845,241.887,114.8,241.7Zm20.263-2.636h-.3c-1.459-.006-2.917.034-4.37-.034a3.114,3.114,0,0,1,.383-6.212H134.8c.079,0,.163-.006.253-.011v-2.264a1.57,1.57,0,0,0-1.667-1.667H117.807a1.57,1.57,0,0,0-1.656,1.656v10.729a1.881,1.881,0,0,0,.062.5,1.56,1.56,0,0,0,1.616,1.16h15.713a1.532,1.532,0,0,0,1.492-1.374,13.059,13.059,0,0,0,.023-1.329C135.063,239.842,135.063,239.47,135.063,239.065Zm-2.174-11.556c-.017-.079-.028-.124-.039-.169a1.566,1.566,0,0,0-1.571-1.048H117.836a2.549,2.549,0,0,0-.417.034,1.525,1.525,0,0,0-1.233,1.605c.028-.011.056-.011.073-.028a3.3,3.3,0,0,1,1.684-.394q7.324.008,14.648.006C132.681,227.509,132.771,227.509,132.889,227.509Zm2.163,6.679c-.045-.006-.068-.011-.09-.011-1.442,0-2.883-.011-4.325.011a1.837,1.837,0,0,0-.783.22,1.75,1.75,0,0,0,.817,3.283c1.414.011,2.827.006,4.241,0a1.124,1.124,0,0,0,.135-.023C135.052,236.5,135.052,235.354,135.052,234.188Z"
            fill="#7856a3" />
        <path id="Path_1496" d="M389.2,409.51a.71.71,0,0,1,1.419,0,.71.71,0,1,1-1.419,0Z"
            transform="translate(-258.946 -173.52)" fill="#7856a3" />
    </g>
</svg>
