<svg xmlns="http://www.w3.org/2000/svg" width="17.404" height="21.945" viewBox="0 0 17.404 21.945">
    <g id="bag_stroke" transform="translate(-147.447 -294.799)">
        <g id="Group_106" transform="translate(147.447 294.799)">
            <path id="Path_1337"
                d="M151.773,299.731a4.437,4.437,0,0,1,1.5-3.853,4.389,4.389,0,0,1,6.17.4,4.443,4.443,0,0,1,1.091,3.451c.384,0,.738-.012,1.1,0a4.947,4.947,0,0,1,1.043.085,2.156,2.156,0,0,1,1.61,2.109c.085,1.78.159,3.561.244,5.341.1,2.091.207,4.182.3,6.28a6.634,6.634,0,0,1-.037,1.518,2.115,2.115,0,0,1-2.091,1.677q-6.539,0-13.078,0a2.194,2.194,0,0,1-2.17-2.329c.091-1.86.171-3.713.262-5.573.1-2.1.2-4.2.3-6.3a6.708,6.708,0,0,1,.1-1.158,2.136,2.136,0,0,1,2.042-1.652C150.681,299.725,151.206,299.731,151.773,299.731Zm4.378,15.553h5.6c.3,0,.591.006.89,0a.719.719,0,0,0,.744-.774c0-.183-.006-.366-.012-.549-.1-2.1-.207-4.2-.3-6.3-.091-1.908-.177-3.817-.268-5.731a.726.726,0,0,0-.8-.762q-4.307.009-8.615.024c-1.012,0-2.024,0-3.042.006a.736.736,0,0,0-.823.768c-.043.835-.085,1.671-.128,2.512-.067,1.451-.134,2.908-.2,4.359-.085,1.847-.165,3.695-.268,5.548a.81.81,0,0,0,.9.908C151.925,315.272,154.035,315.284,156.15,315.284Zm2.914-15.565a3.01,3.01,0,0,0-1.488-3.079,2.8,2.8,0,0,0-3.158.2,2.987,2.987,0,0,0-1.183,2.878Z"
                transform="translate(-147.447 -294.799)" fill="#7856a3" />
            <path id="Path_1338"
                d="M223.832,429.3a4.391,4.391,0,0,1-4.28-3.353.76.76,0,0,1,.3-.9.723.723,0,0,1,.872.067,1.129,1.129,0,0,1,.268.488,2.927,2.927,0,0,0,5.67.122c.024-.079.037-.165.061-.244a.741.741,0,0,1,.872-.524.68.68,0,0,1,.573.78,3.575,3.575,0,0,1-.25.872A4.371,4.371,0,0,1,223.832,429.3Z"
                transform="translate(-215.123 -416.995)" fill="#7856a3" />
        </g>
    </g>
</svg>
