<svg id="Aerosols" xmlns="http://www.w3.org/2000/svg" width="57.11" height="57.112" viewBox="0 0 57.11 57.112">
  <path id="Path_1472" data-name="Path 1472" d="M335.585,84.8a4.407,4.407,0,0,1,2.676,1.888c2.037-1.294,3.985-1.175,5.4.312a3.982,3.982,0,0,1,.178,5.249,4.032,4.032,0,0,1,1.888,3.108A3.813,3.813,0,0,1,345,97.929a3.945,3.945,0,0,1-5.174,1.115,3.046,3.046,0,0,1-2.215,2.394,2.978,2.978,0,0,1-3.093-1.041c-1.636,2.022-3.241,2.587-5.1,1.8-1.829-.773-2.528-2.32-2.216-4.936a4.85,4.85,0,0,1-2.9-3.167,14.9,14.9,0,0,1-.223-1.636,8.208,8.208,0,0,0-.416-1.71,1.853,1.853,0,0,0-2.007-1.294c-1.725.1-3.45.03-5.174.03-.8,0-1.279-.372-1.279-1s.491-.981,1.294-.981q7.048,0,14.1.015a.712.712,0,0,0,.788-.491,3.72,3.72,0,0,1,2.156-1.978c.164-.059.312-.164.476-.238C334.545,84.8,335.065,84.8,335.585,84.8Z" transform="translate(-288.629 -84.785)" fill="#15a085"/>
  <path id="Path_1473" data-name="Path 1473" d="M170.966,429a2.958,2.958,0,0,1,2.9,2.572,2.914,2.914,0,0,1-2.29,3.271c-.03.015-.045.06-.059.074H138.73a3.491,3.491,0,0,1-.922-.535c-.476-.52-.877-1.13-1.308-1.7V431.23a2.2,2.2,0,0,0,.193-.312A2.9,2.9,0,0,1,139.414,429h.223a3.916,3.916,0,0,0,.58.089h29.931a3.915,3.915,0,0,0,.58-.089Z" transform="translate(-136.5 -377.806)" fill="#bf3a2b"/>
  <path id="Path_1474" data-name="Path 1474" d="M169.955,203.715a10.881,10.881,0,0,1,1.561.074,2.941,2.941,0,0,1-.268,5.814c-.164-.015-.327-.059-.491-.059H139.637l-.223.089a2.95,2.95,0,0,1-2.736-1.963,2.635,2.635,0,0,0-.178-.253V205.96a1.607,1.607,0,0,0,.164-.268,2.944,2.944,0,0,1,2.944-1.978c.3,0,.595-.015.877-.015.164.015.327.03.506.03h28.519A2.2,2.2,0,0,0,169.955,203.715Z" transform="translate(-136.5 -186.006)" fill="#bf3a2b"/>
  <path id="Path_1475" data-name="Path 1475" d="M229.3,92.6c0-2.171.03-4.327,0-6.5a1.472,1.472,0,0,1,.58-1.4h8.594a1.374,1.374,0,0,1,.669,1.4c-.045.506-.03,1.026-.03,1.546-.669,0-1.338-.03-2.007.015a.973.973,0,0,0-.937,1,.994.994,0,0,0,1.011.966c.654.015,1.294-.015,1.948-.015.015,1,.03,2.007.03,3-1.517.015-3.048.03-4.565.03Z" transform="translate(-215.502 -84.7)" fill="#bcc2c6"/>
  <path id="Path_1476" data-name="Path 1476" d="M136.5,453.8c.431.565.833,1.175,1.308,1.7a3.489,3.489,0,0,0,.922.535H136.5Z" transform="translate(-136.5 -398.919)" fill="#fdfbfb"/>
  <path id="Path_1477" data-name="Path 1477" d="M156.1,270.656c.015-.149.03-.3.03-.446V243.58c0-.164-.03-.327-.03-.491l.223-.089a3.906,3.906,0,0,0,.58.089h8.416q11.174,0,22.348.015c0,.03-.015.074-.015.1v27.418H156.323A.578.578,0,0,1,156.1,270.656Zm15.791-3.911c3.078,0,6.171-.015,9.249,0a2.243,2.243,0,0,0,2.037-3.643q-2.81-4.483-5.591-8.981c-1.219-1.963-2.438-3.94-3.673-5.9a2.294,2.294,0,0,0-4-.045q-4.661,7.472-9.293,14.928a3.137,3.137,0,0,0-.491,1.279,2.156,2.156,0,0,0,2.349,2.349C165.6,266.746,168.753,266.746,171.891,266.746Z" transform="translate(-153.186 -219.462)" fill="#e54c3c"/>
  <path id="Path_1478" data-name="Path 1478" d="M163.4,170.033a5.076,5.076,0,0,1,1.784-2.409,13.685,13.685,0,0,1,5.665-2.691,3.585,3.585,0,0,0,.372-.119c1.725-.223,3.45-.535,5.189-.639a38.153,38.153,0,0,1,4.877.1c1.249.089,2.468.357,3.7.535,1.19.416,2.409.729,3.554,1.249a7.939,7.939,0,0,1,4.312,3.97c-.149.015-.3.03-.446.03H163.891C163.727,170.063,163.564,170.048,163.4,170.033Z" transform="translate(-159.4 -152.324)" fill="#bdc2c6"/>
  <path id="Path_1479" data-name="Path 1479" d="M229.869,142.309c-1.234-.178-2.468-.446-3.7-.535a38.153,38.153,0,0,0-4.877-.1c-1.74.1-3.464.416-5.189.639v-3.39c0-.892.312-1.19,1.2-1.2.253,0,.52,0,.773-.015,1.769.015,3.524.03,5.293.03,1.517,0,3.048-.015,4.565-.03h.506c1.145,0,1.413.238,1.442,1.368C229.9,140.168,229.869,141.239,229.869,142.309Z" transform="translate(-204.264 -129.819)" fill="#95a4a4"/>
  <path id="Path_1480" data-name="Path 1480" d="M278.457,106.307c-.654.015-1.294.03-1.948.015a.982.982,0,0,1-.074-1.963c.669-.045,1.338-.015,2.007-.015C278.442,105.014,278.457,105.668,278.457,106.307Z" transform="translate(-254.83 -101.415)" fill="#3d434e"/>
  <path id="Path_1481" data-name="Path 1481" d="M188.944,243.2q-11.174,0-22.348-.015H158.18a3.909,3.909,0,0,1-.58-.089h31.121a2.767,2.767,0,0,1,.491.059Z" transform="translate(-154.463 -219.548)" fill="#d4665b"/>
  <path id="Path_1482" data-name="Path 1482" d="M157.6,429h31.091a3.915,3.915,0,0,1-.58.089H158.18A2.614,2.614,0,0,1,157.6,429Z" transform="translate(-154.463 -377.806)" fill="#d4665b"/>
  <path id="Path_1483" data-name="Path 1483" d="M194.88,289.88h-9.412a2.156,2.156,0,0,1-2.349-2.349,3.136,3.136,0,0,1,.491-1.279q4.639-7.472,9.293-14.928a2.294,2.294,0,0,1,4,.045c1.234,1.963,2.453,3.94,3.673,5.9,1.859,2.989,3.717,5.992,5.591,8.981a2.348,2.348,0,0,1,.223,2.513,2.308,2.308,0,0,1-2.26,1.13C201.036,289.865,197.958,289.88,194.88,289.88ZM193.9,278.5v3.346a1,1,0,0,0,.981,1.115.982.982,0,0,0,.981-1.056c.015-2.245.015-4.49,0-6.75a.994.994,0,1,0-1.978.059C193.9,276.319,193.9,277.419,193.9,278.5Zm.966,6.453a.953.953,0,0,0-.966,1,.94.94,0,0,0,.966.937.967.967,0,1,0,0-1.933Z" transform="translate(-176.175 -242.596)" fill="#f2d35b"/>
  <path id="Path_1484" data-name="Path 1484" d="M255.7,300.993v-3.286a.991.991,0,0,1,.922-1.115,1.014,1.014,0,0,1,1.056,1.056c.015,2.245.015,4.49,0,6.751a.982.982,0,0,1-.981,1.056,1,1,0,0,1-.981-1.115C255.7,303.223,255.7,302.108,255.7,300.993Z" transform="translate(-237.976 -265.084)" fill="#4a525d"/>
  <path id="Path_1485" data-name="Path 1485" d="M256.664,369.6a.967.967,0,1,1,0,1.933.966.966,0,1,1,0-1.933Z" transform="translate(-237.974 -327.238)" fill="#4a525d"/>
</svg>
