<svg xmlns="http://www.w3.org/2000/svg" width="242.579" height="289.963" viewBox="0 0 242.579 289.963">
  <g id="Group_725" data-name="Group 725" transform="translate(1251.722 1792.177)">
    <path id="Path_4073" data-name="Path 4073" d="M-1233.8-1143.575a25.964,25.964,0,0,1-7.493-1.112,18.975,18.975,0,0,1-6.53-3.388,10.788,10.788,0,0,1-3.767-5.679l-.007-.028-.006-.028a5.021,5.021,0,0,1-.12-.945,3.977,3.977,0,0,1,1.163-2.854,4.1,4.1,0,0,1,3.02-1.252,4.12,4.12,0,0,1,2.544.866,3.893,3.893,0,0,1,1.458,2.2,3.6,3.6,0,0,0,1.414,1.742,10.825,10.825,0,0,0,3.483,1.658,16.909,16.909,0,0,0,4.842.657,17.809,17.809,0,0,0,6.464-1.132c1.665-.648,2.441-1.6,2.441-3,0-1.375-.766-2.33-2.412-3.008a29.782,29.782,0,0,0-7.113-1.792,28.085,28.085,0,0,1-10.83-3.6,9.368,9.368,0,0,1-4.409-8.474,9.433,9.433,0,0,1,2.311-6.428,13.429,13.429,0,0,1,5.89-3.8,23.782,23.782,0,0,1,7.658-1.2,21.407,21.407,0,0,1,9.932,2.253,12.44,12.44,0,0,1,6.053,6.077l.013.033a4.363,4.363,0,0,1,.315,1.552,3.96,3.96,0,0,1-.658,2.163,3.971,3.971,0,0,1-1.861,1.55l-.025.009a4.391,4.391,0,0,1-1.588.333,3.987,3.987,0,0,1-2.335-.741,4.493,4.493,0,0,1-1.5-1.8l-.008-.019a4.926,4.926,0,0,0-3.03-2.29,15.5,15.5,0,0,0-5.3-.964,15.373,15.373,0,0,0-5.721.976c-1.337.536-1.9,1.289-1.827,2.438l0,.03v.03c0,.663.206,1.625,1.988,2.316a27.267,27.267,0,0,0,6.172,1.472l.03,0a32.464,32.464,0,0,1,11.724,3.919,9.7,9.7,0,0,1,4.852,8.811,10.344,10.344,0,0,1-2.454,6.95,14.408,14.408,0,0,1-6.345,4.164A25.736,25.736,0,0,1-1233.8-1143.575Z" transform="translate(0 -358.639)" fill="#fff"/>
    <path id="Path_4074" data-name="Path 4074" d="M-1126.433-1143a4.12,4.12,0,0,1-2.973-1.205,3.852,3.852,0,0,1-1.209-2.85v-9.537h-15.345v9.537a3.9,3.9,0,0,1-1.173,2.839,4.089,4.089,0,0,1-2.958,1.216,4.12,4.12,0,0,1-2.973-1.205,3.852,3.852,0,0,1-1.209-2.85v-30.721a3.853,3.853,0,0,1,1.209-2.849,4.122,4.122,0,0,1,2.973-1.205,4.092,4.092,0,0,1,2.958,1.215,3.9,3.9,0,0,1,1.173,2.839v13.024h15.345v-13.024a3.851,3.851,0,0,1,1.209-2.849,4.122,4.122,0,0,1,2.973-1.205,4.09,4.09,0,0,1,2.957,1.215,3.9,3.9,0,0,1,1.174,2.839v30.721a3.9,3.9,0,0,1-1.173,2.839A4.088,4.088,0,0,1-1126.433-1143Z" transform="translate(-57.482 -360.02)" fill="#fff"/>
    <path id="Path_4075" data-name="Path 4075" d="M-1046.319-1143.648a20.633,20.633,0,0,1-10.377-2.731,20.553,20.553,0,0,1-7.535-7.374,19.633,19.633,0,0,1-2.781-10.22,19.413,19.413,0,0,1,2.808-10.173,20.957,20.957,0,0,1,7.553-7.393,20.4,20.4,0,0,1,10.331-2.759,20.639,20.639,0,0,1,10.377,2.731,20.57,20.57,0,0,1,7.535,7.374,19.641,19.641,0,0,1,2.78,10.22,19.639,19.639,0,0,1-2.78,10.22,20.62,20.62,0,0,1-7.507,7.373A20.6,20.6,0,0,1-1046.319-1143.648Zm0-32.489a12.208,12.208,0,0,0-6.134,1.615,12.588,12.588,0,0,0-4.551,4.407,11.6,11.6,0,0,0-1.694,6.143,11.728,11.728,0,0,0,1.672,6.148,12.373,12.373,0,0,0,4.522,4.4,12.3,12.3,0,0,0,6.184,1.615,12.3,12.3,0,0,0,6.184-1.615,12.382,12.382,0,0,0,4.522-4.4,11.736,11.736,0,0,0,1.672-6.148,11.611,11.611,0,0,0-1.694-6.143,12.6,12.6,0,0,0-4.551-4.407A12.209,12.209,0,0,0-1046.319-1176.137Z" transform="translate(-108.954 -358.566)" fill="#fff"/>
    <path id="Path_4076" data-name="Path 4076" d="M-950.213-1143a4.086,4.086,0,0,1-2.959-1.216,3.892,3.892,0,0,1-1.173-2.839v-30.721a3.892,3.892,0,0,1,1.174-2.839,4.086,4.086,0,0,1,2.958-1.216h16.108a12.287,12.287,0,0,1,5.87,1.478,11.4,11.4,0,0,1,4.443,4.337,13.064,13.064,0,0,1,1.671,6.728,13.466,13.466,0,0,1-1.608,6.658,11.5,11.5,0,0,1-4.381,4.47,11.984,11.984,0,0,1-5.994,1.567h-11.926v9.537a3.851,3.851,0,0,1-1.209,2.85A4.173,4.173,0,0,1-950.213-1143Zm16.108-21.752a3.347,3.347,0,0,0,2.51-1.165,4.666,4.666,0,0,0,1.161-3.37,4.588,4.588,0,0,0-.625-2.51,4.025,4.025,0,0,0-1.482-1.426,3.433,3.433,0,0,0-1.563-.447h-11.926v8.918Z" transform="translate(-175.412 -360.02)" fill="#fff"/>
    <path id="Path_4077" data-name="Path 4077" d="M-848.231-1143.648a20.44,20.44,0,0,1-10.436-2.786,20.737,20.737,0,0,1-7.5-7.424,19.582,19.582,0,0,1-2.753-10.115,19.587,19.587,0,0,1,2.779-10.142,20.753,20.753,0,0,1,7.5-7.423,20.449,20.449,0,0,1,10.409-2.76,20.689,20.689,0,0,1,11.57,3.475,3.937,3.937,0,0,1,1.824,3.409,3.766,3.766,0,0,1-.665,2.2,3.784,3.784,0,0,1-1.486,1.37,4.246,4.246,0,0,1-1.981.486,3.939,3.939,0,0,1-2.32-.7,12.66,12.66,0,0,0-6.942-2.075,12.208,12.208,0,0,0-6.134,1.615,12.582,12.582,0,0,0-4.55,4.407,11.6,11.6,0,0,0-1.695,6.143,11.729,11.729,0,0,0,1.673,6.148,12.378,12.378,0,0,0,4.522,4.4,12.3,12.3,0,0,0,6.184,1.615,10.927,10.927,0,0,0,4.771-1.021,9.866,9.866,0,0,0,3.516-2.777,9.621,9.621,0,0,0,1.493-2.645h-7.062a4.082,4.082,0,0,1-2.959-1.217,3.888,3.888,0,0,1-1.173-2.838,3.892,3.892,0,0,1,1.173-2.839,4.085,4.085,0,0,1,2.958-1.216h11.829a4.069,4.069,0,0,1,2.885,1.143,3.907,3.907,0,0,1,1.246,2.773,17.543,17.543,0,0,1-2.131,9.262,18.04,18.04,0,0,1-6.706,6.918A18.906,18.906,0,0,1-848.231-1143.648Z" transform="translate(-225.799 -358.566)" fill="#f2a818"/>
    <path id="Path_4078" data-name="Path 4078" d="M-740.474-1143.648a20.632,20.632,0,0,1-10.377-2.731,20.549,20.549,0,0,1-7.535-7.374,19.637,19.637,0,0,1-2.78-10.22,19.412,19.412,0,0,1,2.807-10.173,20.959,20.959,0,0,1,7.554-7.394,20.4,20.4,0,0,1,10.331-2.759,20.639,20.639,0,0,1,10.377,2.731,20.57,20.57,0,0,1,7.535,7.374,19.64,19.64,0,0,1,2.78,10.22,19.638,19.638,0,0,1-2.78,10.22,20.613,20.613,0,0,1-7.508,7.373A20.6,20.6,0,0,1-740.474-1143.648Zm0-32.489a12.208,12.208,0,0,0-6.134,1.615,12.584,12.584,0,0,0-4.55,4.407,11.6,11.6,0,0,0-1.694,6.143,11.733,11.733,0,0,0,1.672,6.148,12.382,12.382,0,0,0,4.522,4.4,12.3,12.3,0,0,0,6.185,1.615,12.3,12.3,0,0,0,6.184-1.615,12.372,12.372,0,0,0,4.522-4.4,11.728,11.728,0,0,0,1.673-6.148,11.6,11.6,0,0,0-1.695-6.143,12.6,12.6,0,0,0-4.55-4.407A12.208,12.208,0,0,0-740.474-1176.137Z" transform="translate(-289.361 -358.566)" fill="#f2a818"/>
    <path id="Path_4080" data-name="Path 4080" d="M-1164.572-1566.275c0,35.416,27.347,64.024,61.959,67.849a73.921,73.921,0,0,0,4.669,8.911h-75.887a17.3,17.3,0,0,1-17.156-19.566l18.732-142.34a17.3,17.3,0,0,1,17.151-15.052h59.6a137.172,137.172,0,0,1,12.145,32.81,71.581,71.581,0,0,0-11.337-.9C-1132.777-1634.561-1164.572-1604.171-1164.572-1566.275Z" transform="translate(-35.737 -74.149)" fill="#f2a818"/>
    <path id="Path_4081" data-name="Path 4081" d="M-888.243-1489.515h-82.384a73.939,73.939,0,0,1-4.669-8.911,71.117,71.117,0,0,0,7.918.437c38.443,0,69.882-30.033,69.882-68.286,0-34.241-25.57-62.12-58.546-67.387a137.169,137.169,0,0,0-12.145-32.81h61.212a17.312,17.312,0,0,1,17.161,15.052l18.727,142.34A17.307,17.307,0,0,1-888.243-1489.515Z" transform="translate(-163.054 -74.149)" fill="#fff"/>
    <path id="Path_4082" data-name="Path 4082" d="M-971.084-1726.225v-31.507a34.484,34.484,0,0,0-34.445-34.445,34.484,34.484,0,0,0-34.445,34.445v7.3a3.346,3.346,0,0,0,3.346,3.346,3.346,3.346,0,0,0,3.346-3.346v-7.3a27.785,27.785,0,0,1,27.753-27.753,27.785,27.785,0,0,1,27.754,27.753v31.507a8.806,8.806,0,0,0-5.46,8.144,8.807,8.807,0,0,0,8.806,8.806,8.807,8.807,0,0,0,8.806-8.806A8.807,8.807,0,0,0-971.084-1726.225Z" transform="translate(-124.902)" fill="#f2a818"/>
    <path id="Path_4083" data-name="Path 4083" d="M-1016.48-1519.34c-12,24.536-23.607,40.05-22.563,71.208q.06,1.86.206,3.635c-19.871-5.633-34.537-23.331-34.537-44.769,0-26.1,21.915-46.652,48.143-46.652a49.415,49.415,0,0,1,12.883,1.7A44.238,44.238,0,0,1-1016.48-1519.34Z" transform="translate(-105.201 -151.158)" fill="#f2a818"/>
    <path id="Path_4084" data-name="Path 4084" d="M-927.807-1486.818c0,26.1-21.734,46.657-48.143,46.657a49.645,49.645,0,0,1-13.606-1.888q-.143-1.777-.206-3.635c-1.044-31.158,10.559-46.672,22.563-71.208a44.236,44.236,0,0,0,4.132-14.876C-942.919-1526.341-927.807-1508.492-927.807-1486.818Z" transform="translate(-154.482 -153.606)" fill="#fff"/>
  </g>
</svg>
