<svg xmlns="http://www.w3.org/2000/svg" width="16.757" height="19.941" viewBox="0 0 16.757 19.941">
  <path id="Icon_awesome-apple" d="M14.291,12.788a4.156,4.156,0,0,1,2.226-3.775,4.783,4.783,0,0,0-3.771-1.986c-1.58-.125-3.308.922-3.94.922-.668,0-2.2-.877-3.4-.877C2.921,7.111.281,9.052.281,13a11.1,11.1,0,0,0,.641,3.615c.57,1.634,2.627,5.641,4.772,5.574,1.122-.027,1.914-.8,3.375-.8,1.416,0,2.15.8,3.4.8,2.164-.031,4.025-3.673,4.568-5.311A4.413,4.413,0,0,1,14.291,12.788Zm-2.52-7.31A4.193,4.193,0,0,0,12.84,2.25,4.721,4.721,0,0,0,9.817,3.8,4.259,4.259,0,0,0,8.677,7,3.739,3.739,0,0,0,11.772,5.478Z" transform="translate(-0.281 -2.25)"/>
</svg>
