<svg id="Bomb" xmlns="http://www.w3.org/2000/svg" width="55.677" height="55.622" viewBox="0 0 55.677 55.622">
  <path id="Path_1394" data-name="Path 1394" d="M110.4,326.561a21.668,21.668,0,0,1-8.72,5.515,19.289,19.289,0,0,1-5.257,1.1c-.054,0-.109.068-.163.1H92.242a1.133,1.133,0,0,0-.272-.109c-1.114-.2-2.241-.34-3.341-.638a22.59,22.59,0,0,1-16.5-18.147c-.109-.693-.217-1.4-.326-2.092v-3.043l.326-2.119c.054-.312.136-.625.19-.924a2.65,2.65,0,0,1,.353.543,29.366,29.366,0,0,0,3.817,7.742,29.72,29.72,0,0,0,6.6,6.954,30.172,30.172,0,0,0,8.761,4.645,26.064,26.064,0,0,0,5.936,1.318c1.25.109,2.5.272,3.763.3a16.681,16.681,0,0,0,3.07-.217c1.671-.244,3.314-.6,4.985-.9C109.873,326.575,110.145,326.575,110.4,326.561Z" transform="translate(-71.8 -277.649)" fill="#20202b"/>
  <path id="Path_1395" data-name="Path 1395" d="M445.91,160.955a1.208,1.208,0,0,1-1.426.543c-1.127-.244-2.268-.421-3.4-.625A.824.824,0,0,1,440.3,160a.769.769,0,0,1,.91-.774c1.358.2,2.7.435,4.034.72.258.054.448.448.679.679A2.606,2.606,0,0,0,445.91,160.955Z" transform="translate(-390.247 -150.632)" fill="#f3a005"/>
  <path id="Path_1396" data-name="Path 1396" d="M412.793,96a1.208,1.208,0,0,1,.557,1.2c-.027,1.141,0,2.282-.014,3.423,0,.652-.34,1.046-.856,1.032s-.8-.38-.8-1.019c-.014-1.2-.041-2.391.014-3.586A3.429,3.429,0,0,1,412.128,96Z" transform="translate(-365.497 -96)" fill="#f39f02"/>
  <path id="Path_1397" data-name="Path 1397" d="M72,334.4v0Z" transform="translate(-71.973 -302.018)" fill="#5c5c64"/>
  <path id="Path_1398" data-name="Path 1398" d="M113.687,212.656a5.167,5.167,0,0,0-.8.068c-1.657.3-3.314.638-4.985.9a19.221,19.221,0,0,1-3.07.217c-1.25-.027-2.5-.19-3.762-.3a26.067,26.067,0,0,1-5.936-1.318,30.241,30.241,0,0,1-15.362-11.6,29.161,29.161,0,0,1-3.817-7.742,2.329,2.329,0,0,0-.353-.543,21.232,21.232,0,0,1,2.105-5.9,22.356,22.356,0,0,1,8.354-8.843,22.1,22.1,0,0,1,11.817-3.206,21.741,21.741,0,0,1,10.663,2.839,3.16,3.16,0,0,0,.462,2.54,13.862,13.862,0,0,0,4.958,5.107,3.594,3.594,0,0,0,3.029.625,21.021,21.021,0,0,1,2.839,7.837A22.148,22.148,0,0,1,116.5,209.1,35.456,35.456,0,0,1,113.687,212.656ZM95.716,178.4c-.475.027-1.236.068-1.983.136a1.079,1.079,0,0,0-.964,1.711,3.6,3.6,0,0,0,.543.869c1.372,1.4,2.689,2.88,4.184,4.143a71.322,71.322,0,0,0,8.747,6.289c1.589.978,3.206,1.888,4.836,2.771a1.728,1.728,0,0,0,2.7-1.277,12.211,12.211,0,0,0-.122-3.219,9.457,9.457,0,0,0-3.953-6.466,25.306,25.306,0,0,0-5.379-3.111A22,22,0,0,0,95.716,178.4Z" transform="translate(-75.084 -163.744)" fill="#2f2e3c"/>
  <path id="Path_1399" data-name="Path 1399" d="M326.227,187.9a3.594,3.594,0,0,1-3.029-.625,13.655,13.655,0,0,1-4.958-5.107,3.151,3.151,0,0,1-.462-2.54c.829-.815,1.657-1.616,2.486-2.431a8.812,8.812,0,0,0,4.034,6.384,8.433,8.433,0,0,0,3.043,1.711c.353.1.72.149,1.087.217l-1.874,1.915A2.269,2.269,0,0,0,326.227,187.9Z" transform="translate(-284.269 -166.171)" fill="#20202b"/>
  <path id="Path_1400" data-name="Path 1400" d="M344.863,181.72a9.617,9.617,0,0,1-1.087-.217,8.434,8.434,0,0,1-3.043-1.712,12.221,12.221,0,0,1-3.5-4.265,11,11,0,0,1-.53-2.119c.53-.638,1.032-.747,1.983-.408a9.837,9.837,0,0,1,3.274,2.065,3.092,3.092,0,0,1-.3.435c-.353.367-.72.706-1.06,1.073a.817.817,0,0,0-.082,1.209.826.826,0,0,0,1.25-.014c.38-.34.72-.72,1.087-1.059a2.816,2.816,0,0,1,.475-.3,9.16,9.16,0,0,1,2.133,3.667A1.374,1.374,0,0,1,344.863,181.72Z" transform="translate(-300.719 -162.377)" fill="#302f3d"/>
  <path id="Path_1401" data-name="Path 1401" d="M385.579,155.982c1.182-1.2,2.35-2.4,3.532-3.586a.841.841,0,1,1,1.2,1.182c-1.168,1.182-2.35,2.336-3.532,3.5C385.864,157.245,385.538,156.946,385.579,155.982Z" transform="translate(-342.955 -144.491)" fill="#ea1825"/>
  <path id="Path_1402" data-name="Path 1402" d="M360.22,145.61a.846.846,0,0,1-1.005.8c-1.25-.2-2.486-.421-3.735-.666-.611-.122-.924-.53-.815-1.005.109-.516.543-.761,1.182-.638l3.464.611C359.894,144.823,360.22,145.149,360.22,145.61Z" transform="translate(-316.225 -137.542)" fill="#f3a106"/>
  <path id="Path_1403" data-name="Path 1403" d="M434.595,179.917c-.2.19-.394.557-.638.584a1.166,1.166,0,0,1-.937-.285c-.774-.829-1.48-1.725-2.214-2.594a3.164,3.164,0,0,1-.367-.475.79.79,0,0,1,.177-1.073.706.706,0,0,1,1.032,0c.937,1.073,1.847,2.173,2.757,3.26A3.268,3.268,0,0,1,434.595,179.917Z" transform="translate(-381.607 -165.003)" fill="#f3a005"/>
  <path id="Path_1404" data-name="Path 1404" d="M437.979,128.768c-.163-.136-.5-.3-.584-.543a1.171,1.171,0,0,1,.149-.869,2.047,2.047,0,0,1,.693-.489c.924-.543,1.847-1.073,2.757-1.6a.855.855,0,0,1,1.141.082.727.727,0,0,1-.027,1.141c-1.236.774-2.513,1.481-3.776,2.214C438.278,128.741,438.2,128.728,437.979,128.768Z" transform="translate(-387.708 -121.135)" fill="#f3a004"/>
  <path id="Path_1405" data-name="Path 1405" d="M378.689,113.417a.844.844,0,0,1-1.223.856,1.357,1.357,0,0,1-.367-.312c-.774-.91-1.535-1.82-2.3-2.73-.435-.53-.435-.992-.027-1.331s.869-.258,1.3.258c.788.924,1.562,1.847,2.323,2.785A1.684,1.684,0,0,1,378.689,113.417Z" transform="translate(-333.362 -107.834)" fill="#f3a005"/>
  <path id="Path_1406" data-name="Path 1406" d="M411.762,185.771c0-.611-.014-1.236,0-1.847s.326-.924.842-.924.815.353.815.937c.014,1.236.014,2.459,0,3.695,0,.625-.326.978-.842.978s-.8-.34-.815-.951Z" transform="translate(-365.579 -171.183)" fill="#f39f02"/>
  <path id="Path_1407" data-name="Path 1407" d="M366.159,180.6c-.041.964.285,1.25,1.2,1.1-.312.326-.638.652-.951,1.005a2.3,2.3,0,0,0-.258.435,2.8,2.8,0,0,0-.475.3c-.367.34-.706.72-1.087,1.059a.846.846,0,0,1-1.25.014.817.817,0,0,1,.081-1.209c.34-.367.72-.706,1.059-1.073a2.467,2.467,0,0,0,.3-.435C365.236,181.4,365.7,181.007,366.159,180.6Z" transform="translate(-323.536 -169.109)" fill="#8fa1a7"/>
  <path id="Path_1408" data-name="Path 1408" d="M203.816,203.9a22.07,22.07,0,0,1,8.625,1.861,24.977,24.977,0,0,1,5.379,3.111,9.457,9.457,0,0,1,3.953,6.466,12.191,12.191,0,0,1,.122,3.219,1.73,1.73,0,0,1-2.7,1.277c-1.63-.883-3.26-1.807-4.836-2.771a70.921,70.921,0,0,1-8.747-6.289c-1.494-1.263-2.812-2.744-4.184-4.143a3.352,3.352,0,0,1-.543-.869,1.072,1.072,0,0,1,.964-1.711C202.58,203.968,203.341,203.927,203.816,203.9Z" transform="translate(-183.183 -189.244)" fill="#525463"/>
</svg>
