<svg id="Cell_phone" data-name="Cell phone" xmlns="http://www.w3.org/2000/svg" width="32.695" height="63.201" viewBox="0 0 32.695 63.201">
  <path id="Path_1409" data-name="Path 1409" d="M216.614,193.394a.482.482,0,0,0-.062-.093c-1.82-.617-2.452-1.943-2.452-3.809q.046-27.76.015-55.5a3.83,3.83,0,0,1,.648-2.452,3.436,3.436,0,0,1,2.915-1.326c5.537.015,11.058,0,16.594,0,2.961,0,5.922.046,8.883-.015a3.449,3.449,0,0,1,3.64,3.655q-.046,27.945,0,55.874a3.514,3.514,0,0,1-2.637,3.655C234.951,193.394,225.79,193.394,216.614,193.394Zm27.991-8.76V171.679c0-.108.015-.2.015-.308V139.432c0-.17-.031-.355-.046-.524h-28.33v31.415c0,.447.015.91.015,1.357v12.955a3.053,3.053,0,0,0,.632.123h27.081A2.868,2.868,0,0,0,244.605,184.634Zm-10.842-48.981c.509-.185.987-.447.972-1.08a1.053,1.053,0,0,0-.848-1.033,1.676,1.676,0,0,0-.463-.108H227.44a2.507,2.507,0,0,0-.463.108,1.053,1.053,0,0,0-.848,1.033c-.015.632.463.879.972,1.08h6.539A.17.17,0,0,0,233.763,135.653Zm-1.234,53.453a2.1,2.1,0,1,0-4.195-.062,2.1,2.1,0,1,0,4.195.062ZM221.8,134.558a1.054,1.054,0,0,0,1.033,1.08,1.244,1.244,0,0,0,1.033-1.064,1.112,1.112,0,0,0-1.049-1.018A.976.976,0,0,0,221.8,134.558Z" transform="translate(-214.1 -130.193)" fill="#707384"/>
  <path id="Path_1410" data-name="Path 1410" d="M293.07,154.013c-.509-.185-.987-.447-.972-1.08a1.053,1.053,0,0,1,.848-1.033h6.894a1.053,1.053,0,0,1,.848,1.033c.015.632-.463.879-.972,1.08H293.07Z" transform="translate(-280.069 -148.552)" fill="#464655"/>
  <path id="Path_1411" data-name="Path 1411" d="M310.59,500.186a2.081,2.081,0,0,1-2.128,2.066,2.12,2.12,0,0,1-2.067-2.128,2.1,2.1,0,1,1,4.195.062Z" transform="translate(-292.161 -441.272)" fill="#464655"/>
  <path id="Path_1412" data-name="Path 1412" d="M228.015,219.472c0-.447-.015-.91-.015-1.357V186.7h28.331c.015.17.046.339.046.524v31.939c0,.108-.015.2-.015.308h-.108v-.123q0-15.939.015-31.878c0-.586-.185-.709-.725-.709q-13.348.023-26.7,0c-.54,0-.725.123-.725.709q.023,15.939.015,31.878v.123Z" transform="translate(-225.856 -177.985)" fill="#84b4d3"/>
  <path id="Path_1413" data-name="Path 1413" d="M256.446,483.2a3.056,3.056,0,0,1-.632.123H228.732a3.055,3.055,0,0,1-.632-.123h28.346Z" transform="translate(-225.941 -428.759)" fill="#809cb5"/>
  <path id="Path_1414" data-name="Path 1414" d="M264,153a.968.968,0,0,1,1.018-1,1.1,1.1,0,0,1,1.049,1.018,1.244,1.244,0,0,1-1.033,1.064A1.054,1.054,0,0,1,264,153Z" transform="translate(-256.302 -148.637)" fill="#464655"/>
  <path id="Path_1415" data-name="Path 1415" d="M228.123,412.155H228V399.2h.108v.015Q228.131,405.67,228.123,412.155Z" transform="translate(-225.856 -357.713)" fill="#6b9fc6"/>
  <path id="Path_1416" data-name="Path 1416" d="M411.223,412.155H411.1V399.2h.108Q411.231,405.677,411.223,412.155Z" transform="translate(-380.719 -357.713)" fill="#6b9fc6"/>
  <path id="Path_1417" data-name="Path 1417" d="M304.594,151.4H297.7a1.678,1.678,0,0,1,.463-.108h5.984A1.259,1.259,0,0,1,304.594,151.4Z" transform="translate(-284.807 -148.034)" fill="#7d7d89"/>
  <path id="Path_1418" data-name="Path 1418" d="M340.8,165.7h0Z" transform="translate(-321.26 -160.224)" fill="#7d7d89"/>
  <path id="Path_1419" data-name="Path 1419" d="M298.4,165.6h.108A.131.131,0,0,1,298.4,165.6Z" transform="translate(-285.399 -160.139)" fill="#7d7d89"/>
  <path id="Path_1420" data-name="Path 1420" d="M228.715,219.687q0-15.939-.015-31.878c0-.586.185-.709.725-.709q13.348.023,26.7,0c.54,0,.725.123.725.709q-.023,15.939-.015,31.878h-8.606c-.062-.478-.278-.91-.771-.956a1.662,1.662,0,0,0-1.049.247c-.231.154-.293.54-.432.833h-2.082c-.139-.756-.509-1.157-1.095-1.172-.6-.015-1.018.4-1.157,1.172-.725-.046-1.434-.077-2.159-.123a1,1,0,0,0-1.033-.987,1.086,1.086,0,0,0-1.126.987Zm26.048-16.255v-1.974c-.015-.91-.386-1.326-1.3-1.357q-1.966-.046-3.933,0c-.895.015-1.3.463-1.311,1.357-.015,1.3,0,2.591,0,3.886,0,.864.4,1.326,1.249,1.342,1.357.031,2.714.031,4.056,0,.848-.015,1.218-.447,1.234-1.3Zm-11.983-5.459h1.912c.91,0,1.357-.386,1.373-1.28.031-1.326.031-2.668,0-3.994-.015-.879-.447-1.265-1.326-1.265h-3.933c-.848,0-1.28.37-1.311,1.2q-.069,2.059,0,4.118c.031.833.478,1.2,1.311,1.218Zm0,17.412h1.974c.879-.015,1.3-.37,1.326-1.265.031-1.342.031-2.668,0-4.01a1.169,1.169,0,0,0-1.326-1.28c-1.311-.015-2.622-.015-3.948,0-.833,0-1.3.386-1.311,1.218-.046,1.373-.046,2.745,0,4.133.031.848.463,1.188,1.311,1.2ZM230.813,194.7h0c0,.679-.015,1.357,0,2.036a1.105,1.105,0,0,0,1.2,1.234c1.373.015,2.745.015,4.133,0a1.113,1.113,0,0,0,1.2-1.187c.015-1.388.015-2.791,0-4.195a1.077,1.077,0,0,0-1.157-1.157c-1.419-.015-2.838-.015-4.241,0a1.041,1.041,0,0,0-1.126,1.11C230.8,193.269,230.813,193.978,230.813,194.7Zm23.951,17.442h0c0-.725.015-1.434,0-2.159a1.077,1.077,0,0,0-1.157-1.157c-1.419-.015-2.838-.015-4.241,0a1.1,1.1,0,0,0-1.141,1.126q-.023,2.151,0,4.3a1.069,1.069,0,0,0,1.141,1.11c1.419.015,2.838.015,4.241,0,.756,0,1.141-.416,1.157-1.2Zm-20.65-3.192H232.2c-1.08,0-1.388.308-1.388,1.388v3.624c0,.972.416,1.388,1.388,1.388h3.748a1.192,1.192,0,0,0,1.373-1.234c.046-1.311.062-2.622,0-3.933-.046-.817-.37-1.326-1.373-1.249C235.347,208.984,234.73,208.953,234.113,208.953Zm5.444-5.537h0v2.1c.031.725.37,1.11,1.095,1.126,1.419.015,2.838.015,4.241,0a1.007,1.007,0,0,0,1.11-1.11c.015-1.419.015-2.838,0-4.241a.983.983,0,0,0-1.064-1.095q-2.151-.023-4.3,0a.982.982,0,0,0-1.079,1.08C239.542,201.967,239.557,202.692,239.557,203.417Zm-8.744,0v2.036A1.125,1.125,0,0,0,232,206.717c1.357.031,2.714.031,4.056,0,.879-.015,1.28-.493,1.3-1.373v-3.871c0-.864-.386-1.326-1.234-1.357-1.357-.046-2.714-.046-4.056,0-.879.031-1.234.463-1.249,1.342C230.8,202.106,230.813,202.754,230.813,203.417Zm23.935-8.714c0-.694.015-1.4,0-2.1a1.105,1.105,0,0,0-1.157-1.172c-1.373-.015-2.761-.015-4.133,0a1.119,1.119,0,0,0-1.234,1.172q-.046,2.036,0,4.071a1.171,1.171,0,0,0,1.265,1.28c1.342.015,2.668.015,4.01,0a1.146,1.146,0,0,0,1.249-1.28Z" transform="translate(-226.448 -178.324)" fill="#63aeda"/>
  <path id="Path_1421" data-name="Path 1421" d="M228.8,398.4h8.621a.17.17,0,0,1,0,.123c-2.869,0-5.737,0-8.621.016v-.016C228.8,398.477,228.8,398.431,228.8,398.4Z" transform="translate(-226.533 -357.037)" fill="#78aed2"/>
  <path id="Path_1422" data-name="Path 1422" d="M355.4,398.4h8.606v.139H355.4Z" transform="translate(-333.609 -357.037)" fill="#78aed2"/>
  <path id="Path_1423" data-name="Path 1423" d="M248.324,398.623h8.606v12.939H228.8V398.623c2.869,0,5.737,0,8.621-.016.293.771.632,1.064,1.2.987a1.029,1.029,0,0,0,.941-1.095c.725.046,1.434.077,2.159.123.154.586.463,1,1.126,1,.679,0,.972-.432,1.126-1h2.082c.339.833.617,1.049,1.265,1A1.078,1.078,0,0,0,248.324,398.623Zm-2.144,4.195c-.324-.879-.493-1-1.419-1h-3.794c-.941,0-1.095.108-1.419,1v4.55c.247.293.478.586.725.879h5.2c.247-.293.478-.586.725-.879C246.181,405.841,246.181,404.33,246.181,402.818Zm-8.868,4.8a1.334,1.334,0,0,0,.123-.4c.015-1.373.015-2.73,0-4.1a1.329,1.329,0,0,0-.108-.324,1.038,1.038,0,0,0-1.187-.972c-1.388-.031-2.791-.031-4.179,0a1.073,1.073,0,0,0-1.049,1.11c0,1.434-.015,2.869,0,4.3a1.025,1.025,0,0,0,1.11,1.095c1.265,0,2.545-.031,3.809.015A1.467,1.467,0,0,0,237.313,407.615Zm17.52-2.468c0-.74.015-1.481,0-2.221a1.049,1.049,0,0,0-1.126-1.11c-1.419-.015-2.838-.015-4.241,0a1.07,1.07,0,0,0-1.157,1.095c-.031,1.434-.015,2.869,0,4.3a1.062,1.062,0,0,0,1.08,1.11c1.45.031,2.915.031,4.365,0a1.062,1.062,0,0,0,1.08-1.11C254.848,406.535,254.833,405.841,254.833,405.147Z" transform="translate(-226.533 -357.121)" fill="#468cbd"/>
  <path id="Path_1424" data-name="Path 1424" d="M361.839,274.689v1.974a1.139,1.139,0,0,1-1.234,1.3c-1.357.031-2.714.031-4.056,0-.848-.015-1.249-.478-1.249-1.342V272.73a1.175,1.175,0,0,1,1.311-1.357q1.966-.046,3.933,0c.91.015,1.3.432,1.3,1.357Z" transform="translate(-333.524 -249.581)" fill="#fda057"/>
  <path id="Path_1425" data-name="Path 1425" d="M301.795,221.739h-1.974c-.833-.015-1.3-.386-1.311-1.218q-.069-2.059,0-4.118c.031-.833.463-1.2,1.311-1.2h3.933a1.145,1.145,0,0,1,1.326,1.265c.031,1.326.031,2.668,0,3.994-.015.894-.463,1.265-1.373,1.28Z" transform="translate(-285.463 -202.09)" fill="#fd666b"/>
  <path id="Path_1426" data-name="Path 1426" d="M301.795,334.491h-1.974c-.864-.015-1.3-.355-1.311-1.2-.046-1.373-.046-2.745,0-4.133a1.14,1.14,0,0,1,1.311-1.218c1.311-.015,2.622-.015,3.948,0a1.163,1.163,0,0,1,1.326,1.28c.031,1.342.031,2.668,0,4.01-.015.879-.447,1.249-1.326,1.265Z" transform="translate(-285.463 -297.43)" fill="#fddb6b"/>
  <path id="Path_1427" data-name="Path 1427" d="M242.315,218.406c0-.725-.015-1.434,0-2.159a1.041,1.041,0,0,1,1.126-1.11c1.419-.015,2.838-.015,4.241,0a1.07,1.07,0,0,1,1.157,1.157c.015,1.388.015,2.791,0,4.195a1.106,1.106,0,0,1-1.2,1.188c-1.373.015-2.745.015-4.133,0a1.092,1.092,0,0,1-1.2-1.234c0-.679,0-1.357.015-2.036Z" transform="translate(-237.951 -202.027)" fill="#fedb6a"/>
  <path id="Path_1428" data-name="Path 1428" d="M245.785,328.673c.617,0,1.234.031,1.851-.015.987-.077,1.326.432,1.373,1.249.062,1.311.046,2.622,0,3.933a1.2,1.2,0,0,1-1.373,1.234h-3.748c-.972,0-1.373-.416-1.388-1.388v-3.624c0-1.079.324-1.388,1.388-1.388Zm-.015,2.1h0a12.119,12.119,0,0,0-1.3.015.955.955,0,0,0-.894.925c-.062.555.154,1.08.694,1.126a14.16,14.16,0,0,0,2.915,0,.9.9,0,0,0,.709-1.126,1,1,0,0,0-.972-.941C246.556,330.74,246.155,330.771,245.77,330.771Z" transform="translate(-238.12 -298.044)" fill="#478cbe"/>
  <path id="Path_1429" data-name="Path 1429" d="M299.062,275.075c0-.725-.015-1.434,0-2.159a.99.99,0,0,1,1.08-1.08q2.151-.023,4.3,0a.99.99,0,0,1,1.064,1.095c.015,1.419.015,2.838,0,4.241a1,1,0,0,1-1.11,1.11c-1.419.015-2.838.015-4.241,0a1.015,1.015,0,0,1-1.1-1.126v-2.082Zm3.007-.972v-.031c-.293,0-.571.015-.864,0a.973.973,0,0,0-1.141.956,1.12,1.12,0,0,0,1.064,1.126c.632.015,1.28.015,1.912,0a2.485,2.485,0,0,0,.833-.139.984.984,0,0,0,.524-1.234.846.846,0,0,0-.864-.786C303.057,274.027,302.563,274.073,302.07,274.1Z" transform="translate(-285.954 -249.982)" fill="#464655"/>
  <path id="Path_1430" data-name="Path 1430" d="M242.362,274.525v-1.974c0-.879.37-1.311,1.249-1.342,1.357-.046,2.714-.046,4.056,0,.848.031,1.234.509,1.234,1.357v3.871a1.2,1.2,0,0,1-1.3,1.373c-1.357.031-2.714.031-4.056,0a1.125,1.125,0,0,1-1.187-1.265C242.347,275.883,242.362,275.2,242.362,274.525Zm1.1.031a2.16,2.16,0,1,0,4.318-.092,2.16,2.16,0,1,0-4.318.092Z" transform="translate(-237.998 -249.432)" fill="#a1d67b"/>
  <path id="Path_1431" data-name="Path 1431" d="M361.7,218.406v1.974a1.146,1.146,0,0,1-1.249,1.28c-1.342.031-2.668.015-4.01,0a1.172,1.172,0,0,1-1.265-1.28q-.046-2.036,0-4.071a1.1,1.1,0,0,1,1.234-1.172c1.373-.015,2.761-.015,4.133,0a1.1,1.1,0,0,1,1.157,1.172C361.712,217,361.7,217.712,361.7,218.406Zm-3.223,2.159a2.167,2.167,0,1,0-2.205-2.144A2.143,2.143,0,0,0,358.473,220.565Z" transform="translate(-333.397 -202.027)" fill="#03dbcc"/>
  <path id="Path_1432" data-name="Path 1432" d="M286.944,392.9A1.031,1.031,0,0,1,286,394c-.586.077-.925-.216-1.2-.987a.17.17,0,0,0,0-.123,1.075,1.075,0,0,1,1.126-.987A1.045,1.045,0,0,1,286.944,392.9Z" transform="translate(-273.897 -351.537)" fill="#484857"/>
  <path id="Path_1433" data-name="Path 1433" d="M361.726,423.437c0,.694.015,1.4,0,2.1a1.062,1.062,0,0,1-1.079,1.11c-1.45.031-2.915.031-4.364,0a1.071,1.071,0,0,1-1.08-1.11c-.015-1.434-.031-2.868,0-4.3a1.061,1.061,0,0,1,1.157-1.1c1.419-.015,2.838-.015,4.241,0a1.041,1.041,0,0,1,1.126,1.11C361.741,421.956,361.726,422.7,361.726,423.437Z" transform="translate(-333.426 -375.411)" fill="#fe6469"/>
  <path id="Path_1434" data-name="Path 1434" d="M248.752,425.756a1.513,1.513,0,0,1-1.5.74c-1.265-.046-2.545-.015-3.809-.015a1.04,1.04,0,0,1-1.11-1.1q-.023-2.151,0-4.3a1.074,1.074,0,0,1,1.049-1.11c1.388-.031,2.791-.031,4.179,0a1.046,1.046,0,0,1,1.188.972Z" transform="translate(-237.972 -375.263)" fill="#00dbcc"/>
  <path id="Path_1435" data-name="Path 1435" d="M305.047,425.368c-.247.293-.478.586-.725.879h-5.2c-.247-.293-.478-.586-.725-.879a3.911,3.911,0,0,0,.108-.586c.015-1.126.015-2.252,0-3.393a3.91,3.91,0,0,0-.108-.586c.324-.879.494-1,1.419-1h3.794c.941,0,1.095.108,1.419,1a3.9,3.9,0,0,0-.108.586c-.015,1.126-.015,2.252,0,3.393C304.939,424.982,305.016,425.182,305.047,425.368Zm-3.347-.108a2.167,2.167,0,1,0-2.174-2.205A2.2,2.2,0,0,0,301.7,425.26Z" transform="translate(-285.399 -375.136)" fill="#64afda"/>
  <path id="Path_1436" data-name="Path 1436" d="M303.1,461.6h0Z" transform="translate(-289.374 -410.49)" fill="#78aed2"/>
  <path id="Path_1437" data-name="Path 1437" d="M284,431.127V426.3a.892.892,0,0,1,.108.324c0,1.373.015,2.73,0,4.1A.916.916,0,0,1,284,431.127Z" transform="translate(-273.22 -380.634)" fill="#1eded1"/>
  <path id="Path_1438" data-name="Path 1438" d="M340.845,430.865a3.91,3.91,0,0,1-.108-.586c-.015-1.126-.015-2.252,0-3.393a3.907,3.907,0,0,1,.108-.586Z" transform="translate(-321.197 -380.634)" fill="#80b8db"/>
  <path id="Path_1439" data-name="Path 1439" d="M298.5,426.4a3.907,3.907,0,0,1,.108.586c.015,1.126.015,2.252,0,3.393a3.907,3.907,0,0,1-.108.586Z" transform="translate(-285.484 -380.718)" fill="#80b8db"/>
  <path id="Path_1440" data-name="Path 1440" d="M364.6,342.362c.37,0,.74-.015,1.11,0a1.061,1.061,0,0,1,1.018,1.033,1,1,0,0,1-1.018,1.08c-.771.031-1.558.031-2.344,0a1.015,1.015,0,0,1-.972-1,1.109,1.109,0,0,1,.956-1.1c.046,0,.077-.015.123-.015.386-.015.756,0,1.126,0Z" transform="translate(-339.527 -309.635)" fill="#fe656a"/>
  <path id="Path_1441" data-name="Path 1441" d="M307.6,286.177c.493-.031.972-.077,1.465-.077a.826.826,0,0,1,.864.786.99.99,0,0,1-.524,1.234,2.148,2.148,0,0,1-.833.139c-.632.015-1.28.015-1.912,0a1.109,1.109,0,0,1-1.064-1.126.973.973,0,0,1,1.141-.956c.293.015.571,0,.864,0Z" transform="translate(-291.481 -262.056)" fill="#478cbc"/>
  <path id="Path_1442" data-name="Path 1442" d="M249.5,280.667a2.168,2.168,0,1,1,4.334-.093,2.168,2.168,0,1,1-4.334.093Z" transform="translate(-244.041 -255.543)" fill="#fddc6b"/>
  <path id="Path_1443" data-name="Path 1443" d="M364.605,226.549a2.175,2.175,0,1,1,2.144-2.221A2.156,2.156,0,0,1,364.605,226.549Z" transform="translate(-339.529 -208.01)" fill="#fc666b"/>
  <path id="Path_1444" data-name="Path 1444" d="M307.871,431.434a2.167,2.167,0,1,1,2.221-2.159A2.188,2.188,0,0,1,307.871,431.434Z" transform="translate(-291.569 -381.311)" fill="#fddb6b"/>
</svg>
