<svg xmlns="http://www.w3.org/2000/svg" width="19.06" height="13.196" viewBox="0 0 19.06 13.196">
    <defs>
        <clipPath id="clip-path">
            <rect width="19.06" height="13.196" fill="none" />
        </clipPath>
    </defs>
    <g id="Icon_ionic-ios-mail" clip-path="url(#clip-path)">
        <g id="Icon_ionic-ios-mail-2">
            <path id="Path_805"
                d="M22.28,10.342l-4.93,5.022a.089.089,0,0,0,0,.128l3.45,3.675a.6.6,0,0,1,0,.843.6.6,0,0,1-.843,0L16.52,16.349a.094.094,0,0,0-.133,0l-.838.852a3.689,3.689,0,0,1-2.63,1.109,3.763,3.763,0,0,1-2.685-1.141l-.806-.82a.094.094,0,0,0-.133,0L5.858,20.01a.6.6,0,0,1-.843,0,.6.6,0,0,1,0-.843l3.45-3.675a.1.1,0,0,0,0-.128L3.531,10.342a.09.09,0,0,0-.156.064V20.454A1.471,1.471,0,0,0,4.841,21.92H20.969a1.471,1.471,0,0,0,1.466-1.466V10.406A.092.092,0,0,0,22.28,10.342Z"
                transform="translate(-3.375 -8.725)" fill="#7856a3" />
            <path id="Path_806"
                d="M13.2,16.264a2.491,2.491,0,0,0,1.792-.751L22.182,8.2a1.44,1.44,0,0,0-.907-.321H5.133a1.431,1.431,0,0,0-.907.321l7.189,7.317A2.491,2.491,0,0,0,13.2,16.264Z"
                transform="translate(-3.671 -7.875)" fill="#7856a3" />
        </g>
    </g>
</svg>
