<svg xmlns="http://www.w3.org/2000/svg" width="19.666" height="19.542" viewBox="0 0 19.666 19.542">
  <path id="Path_1538" d="M117.824,233.5h1.536a.375.375,0,0,0,.1.037,9.427,9.427,0,0,1,4.157,1.347,9.716,9.716,0,0,1,4.7,6.992c.037.229.074.459.111.688v1.575a.712.712,0,0,0-.04.116c-.073.435-.114.877-.22,1.3a9.722,9.722,0,0,1-5.447,6.7,9.016,9.016,0,0,1-2.575.784v-6.869h2.285c.145-.947.289-1.883.436-2.841h-2.734c0-.587,0-1.156,0-1.724a2.343,2.343,0,0,1,.008-.268,1.318,1.318,0,0,1,1.128-1.329,6,6,0,0,1,.917-.054c.26-.008.519,0,.778,0v-2.415a.47.47,0,0,0-.083-.029,10.791,10.791,0,0,0-2.807-.125,3.373,3.373,0,0,0-1.793.753,3.578,3.578,0,0,0-1.216,2.771c-.025.735,0,1.472-.005,2.208v.224h-2.487v2.838h2.48v6.864c-.165-.029-.322-.052-.476-.086a9.85,9.85,0,0,1-7.665-7.941c-.051-.292-.1-.584-.148-.876v-1.613a.464.464,0,0,0,.039-.1c.051-.335.088-.672.151-1a9.837,9.837,0,0,1,8.186-7.814C117.365,233.576,117.595,233.536,117.824,233.5Z" transform="translate(-108.76 -233.5)" fill="#1877f1"/>
</svg>
