<svg id="flammable" xmlns="http://www.w3.org/2000/svg" width="50.333" height="56.899" viewBox="0 0 50.333 56.899">
  <path id="Path_1390" data-name="Path 1390" d="M160.509,281.6h-.341a.727.727,0,0,0-.282-.1,25.3,25.3,0,0,1-21.048-34.249c.534-1.365,1.246-2.67,1.913-4.094a25.263,25.263,0,0,0,6.986,5.355c0-1.009-.059-2.017.015-3.011a19.818,19.818,0,0,1,.4-2.967,16.735,16.735,0,0,1,8.989-11.584,35.33,35.33,0,0,0,5.132-2.848v24.192c-.163.267-.341.534-.49.8-2.225,4.094-4.391,8.232-6.69,12.282a11.586,11.586,0,0,0-1.5,8.2c.771,3.8,2.7,6.645,6.63,7.787C160.345,281.395,160.42,281.513,160.509,281.6Z" transform="translate(-137.12 -224.718)" fill="#fe4f19"/>
  <path id="Path_1391" data-name="Path 1391" d="M309.641,205.478c.074-.045.133-.1.252-.178a10.711,10.711,0,0,1,.549,5.7c-.222,1.216-.667,2.388-.86,3.6a9.2,9.2,0,0,0,2.284,7.891,7.674,7.674,0,0,0,11.777-.475c.519-.638.994-1.335,1.572-2.091.742.964,1.513,1.869,2.18,2.848a25.175,25.175,0,0,1-16.2,38.981c-.786.148-1.572.208-2.358.326a1.5,1.5,0,0,0-.223.1h-.341a1.369,1.369,0,0,1,.371-.223,7.793,7.793,0,0,0,4.524-3.026,11.108,11.108,0,0,0,.979-12.193c-1.869-3.679-3.916-7.268-5.889-10.887-.534-.994-1.112-1.958-1.661-2.937V208.682a5.7,5.7,0,0,0,.445-.4C307.935,207.347,308.78,206.412,309.641,205.478Z" transform="translate(-281.461 -205.3)" fill="#cb2f00"/>
  <path id="Path_1392" data-name="Path 1392" d="M254.039,420.6c-.089-.074-.148-.193-.252-.223-3.916-1.142-5.859-4-6.63-7.787a11.586,11.586,0,0,1,1.5-8.2c2.3-4.064,4.465-8.188,6.69-12.282.148-.282.326-.534.49-.8v29.31C255.226,420.6,254.633,420.6,254.039,420.6Z" transform="translate(-230.651 -363.711)" fill="#fed944"/>
  <path id="Path_1393" data-name="Path 1393" d="M306.8,420.765V391.5c.549.979,1.127,1.943,1.661,2.937,1.973,3.619,4.02,7.209,5.889,10.887a11.139,11.139,0,0,1-.979,12.193,7.68,7.68,0,0,1-4.524,3.026,1.372,1.372,0,0,0-.371.223Z" transform="translate(-281.632 -363.881)" fill="#fecb00"/>
</svg>
