<svg xmlns="http://www.w3.org/2000/svg" width="19.665" height="19.674" viewBox="0 0 19.665 19.674">
    <g id="search" transform="translate(-108.76 -233.5)">
        <path id="Path_810"
            d="M308.078,396.405a5.911,5.911,0,0,0,2.077-2.083c.164-.284.3-.586.465-.918H305.36v-3.891h.209q4.5,0,9,0c.165,0,.239.038.251.214.019.273.063.545.1.817a.8.8,0,0,0,.036.121v1.46c-.024.129-.055.257-.071.386a9.7,9.7,0,0,1-2.007,4.887,8.616,8.616,0,0,1-1.6,1.615c-.08-.064-.161-.125-.241-.191Z"
            transform="translate(-186.531 -148.02)" fill="#518ef7" />
        <path id="Path_811"
            d="M139.826,233.5c.236.038.471.077.707.113a9.726,9.726,0,0,1,4.744,2.105.427.427,0,0,1,.045.056l-1.2.983c-.614.5-1.23,1-1.841,1.51a.2.2,0,0,1-.265.028,5.839,5.839,0,0,0-8.444,3.018c-.014.035-.032.069-.048.1q-.528-.426-1.056-.853l-2.137-1.737a1,1,0,0,1,.044-.1,9.752,9.752,0,0,1,7.188-5.106c.242-.041.484-.077.727-.115Z"
            transform="translate(-20.465)" fill="#f04336" />
        <path id="Path_812"
            d="M109.939,346.661a9.263,9.263,0,0,1-1.024-2.913c-.059-.323-.1-.648-.155-.973v-1.536a.321.321,0,0,0,.036-.08c.053-.365.088-.734.16-1.1a8.75,8.75,0,0,1,.909-2.562L112,339.237q.527.428,1.056.853a6.882,6.882,0,0,0-.307,1.745,6.3,6.3,0,0,0,.363,2.233Z"
            transform="translate(0 -98.674)" fill="#faba01" />
        <path id="Path_813"
            d="M131.78,468.352l3.174-2.592a6.16,6.16,0,0,0,1.308,2.032,5.845,5.845,0,0,0,6.989,1.027c.045-.025.091-.046.137-.069l2.956,2.413c.079.064.16.127.241.19a8.754,8.754,0,0,1-2.162,1.331,9.389,9.389,0,0,1-4.92.8,9.7,9.7,0,0,1-7.711-5.093A.168.168,0,0,1,131.78,468.352Z"
            transform="translate(-21.841 -220.365)" fill="#28b346" />
    </g>
</svg>
