<svg xmlns="http://www.w3.org/2000/svg" width="145.867" height="165.658" viewBox="0 0 145.867 165.658">
  <g id="handbag" transform="translate(-137.825 -204.8)">
    <path id="Path_1" d="M219.112,370.415h-23.29a2.7,2.7,0,0,0-.949-.3c-6.944-.647-13.887-1.294-20.788-1.984-2.156-.216-2.717-.819-2.976-2.846a2.527,2.527,0,0,1,3.148-2.027c1.38.173,2.76.3,4.14.474,3.537.388,7.03.906,10.567,1.121,19.969,1.208,39.937,1.208,59.82-1.9a77.623,77.623,0,0,0,22.039-6.512c5.3-2.545,7.591-6.771,7.849-12.335.6-11.17-2.329-21.737-5.391-32.3-.992-3.364-1.984-6.728-3.062-10.48-5.175,12.637-14.491,20.184-26.567,24.713-7.893,2.976-16.087,4.227-24.454,4.874a4.668,4.668,0,0,0-2.2.776c-3.105,1.984-9.445,1.984-12.551-.043a4.966,4.966,0,0,0-2.07-.733,98.628,98.628,0,0,1-19.408-3.235c-9.747-2.8-18.632-7.246-25.1-15.311-2.588-3.235-4.572-6.944-6.728-10.308a5.448,5.448,0,0,0-.259.647c-1.984,7.159-4.14,14.276-5.952,21.435a63.832,63.832,0,0,0-2.156,20.012c.388,5.521,2.5,9.92,7.849,12.162,3.709,1.553,7.5,2.933,11.3,4.313,1.941.69,2.415,1.164,2.458,3.192-.69,1.38-1.768,2.156-3.278,1.6-4.658-1.768-9.359-3.407-13.888-5.477-5.521-2.545-8.108-7.332-8.928-13.154A56.149,56.149,0,0,1,139.841,325c2.674-10.351,5.779-20.573,8.712-30.837a7.036,7.036,0,0,0,.259-2.329c-.043-4.227-.474-8.5-.173-12.723.431-6.167,4.917-10.006,11.084-10.092h2.8c-.3-5.348-.518-10.437,5.564-12.507V255.39c-.129-5.995.043-11.947,1.9-17.726a3.17,3.17,0,0,0,0-1.423,12.056,12.056,0,0,1,1.768-9.4,45.437,45.437,0,0,1,28.465-20.745c1.9-.474,3.8-.863,5.736-1.294h9.4c.173.086.3.3.474.3a44.663,44.663,0,0,1,20.573,7.591c1.811,1.251,2.027,1.984,1.251,4.054-1.38,1.121-2.674.863-4.1-.086a39.461,39.461,0,0,0-31.441-5.995c-11.515,2.545-20.314,9.057-26.438,19.149a7.184,7.184,0,0,0,6.6,10.955c2.847-.173,4.7-1.811,6.124-4.14a26.353,26.353,0,0,1,45.156.518c2.286,3.709,6.6,4.787,10.049,2.631,3.493-2.156,4.4-6.426,2.156-10.178a25.5,25.5,0,0,0-2.458-3.623,3.214,3.214,0,0,1-.474-3.968c2.2-1.078,2.933-.906,4.356,1.078a25.2,25.2,0,0,1,3.105,4.874c.776,1.9,1.6,4.054,1.38,5.995a24.054,24.054,0,0,0,.906,8.065,6.921,6.921,0,0,1,.216,1.251c.3,4.4.6,8.8.906,13.37,4.054,1.51,5.65,4.744,5.391,9.186-.086,1.035,0,2.113,0,3.278,1.337,0,2.372-.043,3.45,0,5.65.3,9.92,4.183,10.351,9.833a66.363,66.363,0,0,1-.043,10.955,17.887,17.887,0,0,0,.733,6.426c2.674,9.1,5.434,18.2,7.806,27.43,1.941,7.591,2.976,15.354,1.811,23.2-.819,5.779-3.45,10.394-8.841,13.068a78.5,78.5,0,0,1-8.971,3.925c-10.825,3.709-22.082,5.046-33.425,5.865-2.329.173-4.615.431-6.944.647h-3.882C220.406,370.415,219.759,370.415,219.112,370.415Zm1.337-44.682c.69,0,1.337.043,1.984,0A78.016,78.016,0,0,0,240.72,321.9c18.89-6.642,28.508-20.874,27.559-40.584-.259-5.348-2.976-7.5-7.763-7.461-33.252.086-66.5.043-99.757.043-.647,0-1.294,0-1.941.043a5.657,5.657,0,0,0-5.391,5.089,53.655,53.655,0,0,0-.259,7.893c.518,9.833,3.968,18.459,11.214,25.36,6.081,5.822,13.5,9.186,21.564,11.127,4.874,1.164,9.92,1.855,15.009,2.76v-7.246H191.51c-3.882,0-6.987-1.466-8.367-5.132-1.466-3.839-1.423-7.763,1.51-11.084a8.593,8.593,0,0,1,6.814-2.76h9.618c0-2.156-.043-4.14,0-6.124a7.878,7.878,0,0,1,7.893-7.936h2.89c5.348,0,8.583,3.235,8.583,8.54v5.521c3.45,0,6.685-.043,9.92,0a8.421,8.421,0,0,1,8.324,5.736c1.38,4.011.3,8.8-2.5,11.17a8.664,8.664,0,0,1-5.995,2.027h-9.661C220.449,321.334,220.449,323.491,220.449,325.734Zm14.75-69.265c-.173-3.58-.3-7.116-.647-10.653a3.979,3.979,0,0,0-1.251-1.984c-1.294-1.423-2.933-2.588-3.925-4.184-9.143-14.319-28.163-14.319-37.307,0a17.114,17.114,0,0,1-3.882,4.011,3.232,3.232,0,0,0-1.423,2.329c-.216,3.493-.388,6.987-.561,10.48,6.3,2.2,5.952,7.332,5.736,12.464h37.565C229.2,263.8,228.859,258.668,235.2,256.469Zm-19.667,52.962V294.249c0-2.329-1.164-3.45-3.493-3.45H210.1c-3.364,0-4.227.863-4.227,4.183v29.543c0,2.545,1.078,3.623,3.666,3.666h2.415c2.5-.043,3.58-1.121,3.58-3.709Zm-28.465-40.5c0-1.811.043-3.407,0-5a2.761,2.761,0,0,0-2.76-2.8c-4.744-.086-9.488-.043-14.233,0a2.516,2.516,0,0,0-2.717,2.286c-.173,1.811-.043,3.623-.043,5.521Zm67.065,0c0-1.768.043-3.407,0-5a2.709,2.709,0,0,0-2.76-2.8c-4.744-.086-9.488-.043-14.233,0a2.729,2.729,0,0,0-2.8,2.588c-.086,1.725-.043,3.407-.043,5.219ZM200.912,304.9c-3.58,0-6.987-.043-10.437.043a2.958,2.958,0,0,0-2.976,2.113,10.328,10.328,0,0,0,.086,4.874,3.749,3.749,0,0,0,2.76,2.027c3.45.259,6.987.086,10.523.086C200.912,310.983,200.912,308.008,200.912,304.9Zm19.537,9.143c3.537,0,6.944.086,10.308-.043,2.156-.086,3.407-1.6,3.493-3.925.129-3.235-.776-5-3.105-5.132-3.537-.216-7.073-.043-10.7-.043ZM173.266,243.1c-.173,4.27-.388,8.626-.561,13.025h8.885V246.074C178.959,245.126,176.285,244.177,173.266,243.1Zm66.548,2.976v10.049h8.841c-.216-4.485-.431-8.841-.6-13.025C245.076,244.177,242.4,245.126,239.814,246.074Z" fill="#040203"/>
    <path id="Path_2" d="M326.3,588.8h0Z" transform="translate(-107.188 -218.385)" fill="#5d5d5d"/>
    <path id="Path_3" d="M240.5,416.841v-6.814h9.661A9.1,9.1,0,0,0,256.156,408c2.8-2.372,3.882-7.159,2.5-11.17-1.208-3.537-4.27-5.65-8.324-5.736-3.235-.043-6.469,0-9.92,0v-5.521c0-5.3-3.235-8.54-8.583-8.54h-2.89a7.851,7.851,0,0,0-7.893,7.936c-.043,1.984,0,3.968,0,6.124h-9.618a8.455,8.455,0,0,0-6.814,2.76c-2.933,3.321-2.976,7.246-1.51,11.084,1.38,3.666,4.529,5.132,8.367,5.132h9.445v7.246c-5.089-.906-10.135-1.6-15.009-2.76-8.065-1.941-15.44-5.348-21.564-11.127-7.246-6.9-10.653-15.526-11.214-25.36a53.654,53.654,0,0,1,.259-7.893,5.657,5.657,0,0,1,5.391-5.089c.647-.043,1.294-.043,1.941-.043,33.252,0,66.5.043,99.757-.043,4.787,0,7.5,2.113,7.763,7.461.949,19.71-8.669,33.942-27.559,40.584a80.261,80.261,0,0,1-18.287,3.839C241.837,416.884,241.191,416.841,240.5,416.841Z" transform="translate(-20.051 -91.107)" fill="#f6bb4f"/>
    <path id="Path_4" d="M316.42,452.8c3.062,10.567,5.995,21.133,5.391,32.3-.3,5.564-2.545,9.79-7.849,12.335a77.619,77.619,0,0,1-22.039,6.512c-19.839,3.105-39.808,3.105-59.82,1.9-3.537-.216-7.073-.733-10.567-1.121-6.857-9.833-8.108-20.961-7.72-32.735,1.121.474,1.984.863,2.89,1.208,10.7,4.27,21.91,5.909,33.339,6.167,4.14.086,8.281-.086,12.421-.3,3.623-.216,7.289-.474,10.868-1.035a77.919,77.919,0,0,0,20.055-5.779,51.457,51.457,0,0,0,19.279-14.491C313.919,456.121,315.126,454.439,316.42,452.8Z" transform="translate(-43.181 -141.04)" fill="#f6bb4f"/>
    <path id="Path_5" d="M279.438,439.037c-1.251,1.639-2.5,3.321-3.8,4.96a51.457,51.457,0,0,1-19.279,14.491,76.947,76.947,0,0,1-20.055,5.779c-3.58.561-7.246.819-10.868,1.035-4.14.216-8.281.431-12.421.3-11.429-.259-22.643-1.9-33.339-6.167-.906-.345-1.768-.733-2.89-1.208-.388,11.774.863,22.9,7.72,32.735-1.38-.129-2.76-.259-4.14-.474a2.527,2.527,0,0,0-3.148,2.027c-2.243-.474-4.485-.949-6.771-1.423-.043-2.027-.474-2.5-2.458-3.192-3.8-1.38-7.591-2.76-11.3-4.313-5.348-2.243-7.461-6.642-7.849-12.162A63.832,63.832,0,0,1,151,451.415c1.811-7.2,3.925-14.319,5.952-21.435a2.092,2.092,0,0,1,.259-.647c2.156,3.364,4.14,7.073,6.728,10.308,6.512,8.065,15.354,12.464,25.1,15.311a101.914,101.914,0,0,0,19.408,3.235,4.606,4.606,0,0,1,2.07.733c3.062,2.027,9.445,2.027,12.551.043a5.846,5.846,0,0,1,2.2-.776,89.219,89.219,0,0,0,24.454-4.874c12.076-4.529,21.392-12.076,26.567-24.713C277.454,432.309,278.446,435.673,279.438,439.037Z" transform="translate(-6.199 -127.278)" fill="#cc9d46"/>
    <path id="Path_6" d="M285.854,223.074c1.725,1.725,3.493,3.45,5.219,5.219a3.151,3.151,0,0,0,.474,3.968,35.58,35.58,0,0,1,2.458,3.623c2.243,3.752,1.337,8.022-2.156,10.178a7.125,7.125,0,0,1-10.049-2.631,26.353,26.353,0,0,0-45.156-.518c-1.466,2.329-3.278,3.968-6.124,4.14a6.8,6.8,0,0,1-6.642-3.45,6.951,6.951,0,0,1,.043-7.5c6.124-10.092,14.923-16.6,26.438-19.149a39.461,39.461,0,0,1,31.441,5.995C283.18,223.894,284.431,224.2,285.854,223.074Z" transform="translate(-48.326 -6.327)" fill="#ecce95"/>
    <path id="Path_7" d="M305.261,422.775v15.009c0,2.588-1.078,3.666-3.58,3.709h-2.415c-2.545-.043-3.623-1.121-3.666-3.666V408.283c0-3.278.906-4.184,4.227-4.184h1.941c2.329.043,3.493,1.121,3.493,3.45Z" transform="translate(-89.728 -113.344)" fill="#ecce95"/>
    <path id="Path_8" d="M225.835,343.164h-19.8c0-1.9-.129-3.752.043-5.521a2.516,2.516,0,0,1,2.717-2.286q7.116-.065,14.233,0a2.735,2.735,0,0,1,2.76,2.8C225.921,339.757,225.835,341.352,225.835,343.164Z" transform="translate(-38.767 -74.231)" fill="#f6bb4f"/>
    <path id="Path_9" d="M381.3,343.164H361.463c0-1.811-.086-3.537.043-5.219a2.73,2.73,0,0,1,2.8-2.588q7.116-.065,14.233,0a2.735,2.735,0,0,1,2.76,2.8C381.345,339.757,381.3,341.4,381.3,343.164Z" transform="translate(-127.169 -74.231)" fill="#f6bb4f"/>
    <path id="Path_10" d="M266.143,436.863v9.143c-3.58,0-7.073.172-10.523-.086a3.775,3.775,0,0,1-2.76-2.027,10.328,10.328,0,0,1-.086-4.874,2.845,2.845,0,0,1,2.976-2.113C259.156,436.777,262.563,436.863,266.143,436.863Z" transform="translate(-65.231 -131.961)" fill="#f6bb4f"/>
    <path id="Path_11" d="M329.4,445.957v-9.143c3.623,0,7.159-.172,10.7.043,2.372.129,3.235,1.9,3.105,5.132-.086,2.286-1.337,3.838-3.493,3.925C336.344,446.043,332.937,445.957,329.4,445.957Z" transform="translate(-108.951 -131.912)" fill="#f6bb4f"/>
    <path id="Path_12" d="M219.2,293.6c3.019,1.078,5.693,2.027,8.281,2.976v10.049H218.6C218.816,302.226,219.031,297.87,219.2,293.6Z" transform="translate(-45.938 -50.502)" fill="#ecce95"/>
    <path id="Path_13" d="M374.3,296.633c2.588-.949,5.262-1.9,8.238-2.933.216,4.184.388,8.54.6,13.025H374.3Z" transform="translate(-134.486 -50.558)" fill="#ecce95"/>
  </g>
</svg>
