<svg xmlns="http://www.w3.org/2000/svg" width="18.806" height="18.804" viewBox="0 0 18.806 18.804">
  <g id="Language" transform="translate(-120 -198.638)">
    <path id="Path_1386" d="M120,208.581v-1.1c.028-.248.055-.5.087-.739a9.418,9.418,0,0,1,10.6-8.016,8.93,8.93,0,0,1,4.926,2.254,9.224,9.224,0,0,1,3.053,5.441c.06.354.1.712.142,1.065v1.1c-.009.064-.023.129-.032.193-.046.34-.069.684-.133,1.019a9.409,9.409,0,0,1-7.612,7.5c-.354.06-.712.1-1.07.147h-1.1c-.248-.028-.5-.055-.744-.092a9.406,9.406,0,0,1-7.961-7.7C120.083,209.293,120.046,208.935,120,208.581Zm8.329-1.547c.106-.069.179-.124.257-.174a1.429,1.429,0,0,1,.923-.239,2.2,2.2,0,0,1,1.437.771,1.571,1.571,0,0,1-.119,2.365c-.418.326-.808.693-1.208,1.042a.451.451,0,0,0-.179.514,1.944,1.944,0,0,1,.06.326,1.052,1.052,0,0,1-.771,1.23c-.321.1-.3.1-.358.432a4.471,4.471,0,0,1-.234,1.028,1.129,1.129,0,0,1-1.956.3,1.628,1.628,0,0,1-.4-1,2,2,0,0,0-.459-1.171,3.387,3.387,0,0,1-.422-.744,2.153,2.153,0,0,1-.073-1.107.852.852,0,0,0-.266-.73c-.133-.129-.248-.271-.372-.409a1.9,1.9,0,0,1-.528-1.276,5.16,5.16,0,0,1,.018-.533.354.354,0,0,0-.161-.34,9.273,9.273,0,0,1-1.85-1.722.113.113,0,0,0-.041-.018,8.15,8.15,0,0,0,13.705,8.049c-.046-.037-.1-.073-.142-.115a1.825,1.825,0,0,1-.67-1.042,2.071,2.071,0,0,1,.092-1.084c.11-.367.243-.73.317-1.107.083-.418-.009-.556-.4-.7a7.881,7.881,0,0,1-1.736-.9,1.345,1.345,0,0,1-.657-1.253,3.292,3.292,0,0,1,.762-1.928,1.915,1.915,0,0,1,2.181-.675c.243.078.491.152.73.243a2.628,2.628,0,0,0,1.253.087,7.929,7.929,0,0,0-1.281-2.241,1.127,1.127,0,0,1-1.2.275,1.587,1.587,0,0,0-1.359.106,1.107,1.107,0,0,1-1.272-.156,3.432,3.432,0,0,1-.615-.721.862.862,0,0,1,.041-1.033c.234-.3.51-.579.767-.863.041-.046.087-.092.138-.147a8.172,8.172,0,0,0-4.261-.4c.1.262.193.5.275.73a10,10,0,0,1,.459,1.465,1.4,1.4,0,0,1-1.313,1.818,1.347,1.347,0,0,0-.817.321,1.512,1.512,0,0,1-1.2.321,2.383,2.383,0,0,0-.4-.018,2.009,2.009,0,0,0-.3.064c.06.046.083.064.11.083a2.951,2.951,0,0,0,1.492.51,1.973,1.973,0,0,1,1.873,1.419C128.218,206.8,128.274,206.905,128.329,207.034Z" fill="#7856a3"/>
  </g>
</svg>
