<svg id="Liquids" xmlns="http://www.w3.org/2000/svg" width="58.328" height="62.459" viewBox="0 0 58.328 62.459">
  <path id="Path_1486" data-name="Path 1486" d="M274.288,259.416a11.132,11.132,0,0,1,2.846,2.944,99.282,99.282,0,0,1,9.353,13,30.4,30.4,0,0,1,3.416,7.726,14.071,14.071,0,0,1-.374,7.563,5.168,5.168,0,0,0-.1.7c-.26.521-.488,1.041-.781,1.529-.781,1.252-1.61,2.489-2.423,3.741-.277.26-.553.521-.83.8a16.17,16.17,0,0,1-11.6,4.814V259.4C273.963,259.416,274.125,259.416,274.288,259.416Z" transform="translate(-244.63 -259.4)" fill="#50f8fe"/>
  <path id="Path_1487" data-name="Path 1487" d="M189.04,259.5v42.827h0c-.569-.033-1.122-.065-1.692-.114a14.122,14.122,0,0,1-6.913-2.358c-1.366-.927-2.57-2.082-3.839-3.139-.081-.13-.163-.276-.26-.407a16.458,16.458,0,0,1-2.619-4.392,3.084,3.084,0,0,0-.309-.488c-.13-.6-.228-1.22-.39-1.822a13.945,13.945,0,0,1,.927-9.418,55.905,55.905,0,0,1,6.734-11.256c1.984-2.651,4.066-5.254,6.148-7.84a14.486,14.486,0,0,1,1.724-1.578C188.714,259.5,188.877,259.5,189.04,259.5Z" transform="translate(-159.869 -259.484)" fill="#99fafe"/>
  <path id="Path_1488" data-name="Path 1488" d="M108,455.8a3.085,3.085,0,0,1,.309.488,16.715,16.715,0,0,0,2.619,4.392,3.466,3.466,0,0,1,.26.407,15.97,15.97,0,0,0-6.994,4.131,6.517,6.517,0,0,0-1.9,4.473,6.627,6.627,0,0,0,1.919,4.6,14.63,14.63,0,0,0,5.563,3.611,36.607,36.607,0,0,0,13.842,2.44l.016.016v5.953c-7.775-.049-15.224-1.431-21.942-5.6a16.931,16.931,0,0,1-5.465-5.221,10.318,10.318,0,0,1,.634-12.378,21,21,0,0,1,7.986-6.034C105.868,456.6,106.942,456.223,108,455.8Z" transform="translate(-94.46 -423.855)" fill="#01e5ee"/>
  <path id="Path_1489" data-name="Path 1489" d="M273.8,486.314v-5.953c1.838-.114,3.676-.2,5.5-.374a29.646,29.646,0,0,0,7.759-1.838,15.505,15.505,0,0,0,6.165-3.871,6.56,6.56,0,0,0,1.919-4.587,6.681,6.681,0,0,0-1.887-4.473,12.492,12.492,0,0,0-3.887-2.863c-1.008-.5-2.082-.862-3.139-1.285.813-1.253,1.626-2.489,2.423-3.741.309-.488.521-1.025.781-1.529,4.18,1.5,8.035,3.513,10.914,7.027a10.422,10.422,0,0,1,2.489,8.442,11.927,11.927,0,0,1-3.578,6.636,25.42,25.42,0,0,1-9.564,5.774A45.662,45.662,0,0,1,273.8,486.314Z" transform="translate(-244.63 -423.855)" fill="#01ccf3"/>
  <path id="Path_1490" data-name="Path 1490" d="M286.143,488.2c1.041.423,2.131.781,3.139,1.285a12.494,12.494,0,0,1,3.887,2.863,6.681,6.681,0,0,1,1.887,4.473,6.589,6.589,0,0,1-1.919,4.587,15.506,15.506,0,0,1-6.165,3.871,29.646,29.646,0,0,1-7.759,1.838c-1.822.179-3.66.26-5.5.374l-.016-.016V493.812h0A16.17,16.17,0,0,0,285.3,489C285.574,488.72,285.866,488.477,286.143,488.2Z" transform="translate(-244.546 -450.985)" fill="#00e5ee"/>
  <path id="Path_1491" data-name="Path 1491" d="M164.022,494v13.663a36.871,36.871,0,0,1-13.842-2.44,14.893,14.893,0,0,1-5.563-3.611A6.6,6.6,0,0,1,142.7,497a6.518,6.518,0,0,1,1.9-4.473A15.88,15.88,0,0,1,151.6,488.4c1.269,1.057,2.472,2.212,3.839,3.139a14.123,14.123,0,0,0,6.913,2.358C162.884,493.914,163.453,493.946,164.022,494Z" transform="translate(-134.852 -451.152)" fill="#50f8fe"/>
</svg>
