<svg xmlns="http://www.w3.org/2000/svg" width="19.06" height="15.529" viewBox="0 0 19.06 15.529">
  <g id="Name" transform="translate(-221.856 -323.3)">
    <path id="Path_1387" d="M231.38,323.306c2.051,0,4.1-.011,6.152.006a3.333,3.333,0,0,1,3.381,3.425c-.006,2.2,0,4.406,0,6.607,0,.7.006,1.413,0,2.117a3.3,3.3,0,0,1-2.777,3.314,3.552,3.552,0,0,1-.643.05q-6.111.008-12.221,0a3.318,3.318,0,0,1-3.387-2.871,2.979,2.979,0,0,1-.028-.5c0-2.932-.006-5.858,0-8.79a3.288,3.288,0,0,1,2.755-3.309,3.5,3.5,0,0,1,.682-.055Q228.337,323.308,231.38,323.306Zm-5.454,8.153a3.337,3.337,0,0,0-1.3,1.862,6.351,6.351,0,0,0-.094,1.862.475.475,0,0,0,.111.26.639.639,0,0,0,.715.255.664.664,0,0,0,.493-.648c.011-.327-.006-.654.011-.975a1.987,1.987,0,0,1,3.957-.15c.039.366.022.732.028,1.1a.663.663,0,1,0,1.325.011c.011-.316.006-.637-.006-.953a3.271,3.271,0,0,0-.737-1.99c-.194-.238-.4-.471-.6-.7a2.889,2.889,0,1,0-3.9.072Zm9.223-1.934H232.76a.664.664,0,1,0-.006,1.325c.776.006,1.552,0,2.322,0h2.45a.67.67,0,0,0,.709-.565.656.656,0,0,0-.671-.765C236.768,329.519,235.958,329.524,235.149,329.524Zm-.87,2.66h-1.5a.945.945,0,0,0-.3.044.653.653,0,0,0-.421.726.683.683,0,0,0,.7.56q1.5.008,3.01,0a.665.665,0,1,0-.017-1.325C235.26,332.179,234.772,332.185,234.279,332.185Z" transform="translate(0 0)" fill="#7856a3"/>
    <path id="Path_1388" d="M304.709,405.055a1.555,1.555,0,1,1-1.535-1.557A1.563,1.563,0,0,1,304.709,405.055Z" transform="translate(-75.324 -75.753)" fill="#7856a3"/>
  </g>
</svg>
