<svg xmlns="http://www.w3.org/2000/svg" width="16.811" height="20.407" viewBox="0 0 16.811 20.407">
    <defs>
        <clipPath id="clip-path">
            <rect width="16.811" height="20.407" fill="none" />
        </clipPath>
    </defs>
    <g id="lock" clip-path="url(#clip-path)">
        <g id="lock-2" transform="translate(-200.998 -268.668)">
            <path id="Path_1382"
                d="M203.426,275.852c0-.438-.008-.852,0-1.266a5.981,5.981,0,0,1,11.895-.82c.08.581.056,1.17.08,1.76.008.1,0,.215,0,.326.207.032.382.056.549.1a2.381,2.381,0,0,1,1.831,2.07,3.608,3.608,0,0,1,.024.414c0,2.7.008,5.39,0,8.089a2.382,2.382,0,0,1-1.839,2.468,3.3,3.3,0,0,1-.74.08q-5.816.012-11.64,0a2.414,2.414,0,0,1-2.572-2.58c0-2.635.032-5.271-.016-7.906A2.53,2.53,0,0,1,203.426,275.852Zm9.578.008c0-.486.016-.939,0-1.393a3.584,3.584,0,0,0-4.252-3.32c-2.365.526-3.209,2.508-2.882,4.721C208.235,275.86,210.6,275.86,213,275.86Zm-2.389,6V280.7a1.195,1.195,0,1,0-2.389-.016c-.008.788-.008,1.568,0,2.357a1.194,1.194,0,1,0,2.389.008Z"
                transform="translate(0 0)" fill="#7856a3" />
        </g>
    </g>
</svg>
