<svg xmlns="http://www.w3.org/2000/svg" width="11.032" height="20.224" viewBox="0 0 11.032 20.224">
  <g id="iphone" transform="translate(-156.82 -53.21)">
    <path id="Path_947" d="M158.68,53.21h7.307a.3.3,0,0,0,.069.033,2.126,2.126,0,0,1,1.794,2.174q.005,7.907,0,15.813a2.135,2.135,0,0,1-2.209,2.2q-3.3,0-6.594,0a2.471,2.471,0,0,1-.566-.061,2.141,2.141,0,0,1-1.656-2.17q0-7.008,0-14.017c0-.618-.01-1.237,0-1.856a1.994,1.994,0,0,1,.892-1.694A5.717,5.717,0,0,1,158.68,53.21Zm3.654,1.841h0c-.448,0-.895-.005-1.343,0a.458.458,0,0,0-.491.456.465.465,0,0,0,.49.46c.9,0,1.8.007,2.7,0a.606.606,0,0,0,.349-.147.4.4,0,0,0,.1-.471.431.431,0,0,0-.427-.292C163.255,55.049,162.794,55.051,162.334,55.051Zm0,16.539a.916.916,0,1,0-.916-.916A.92.92,0,0,0,162.335,71.591Z" fill="#7856a3"/>
  </g>
</svg>
