<svg xmlns="http://www.w3.org/2000/svg" width="39.053" height="46.368" viewBox="0 0 39.053 46.368">
  <g id="Group_1348" data-name="Group 1348" transform="translate(4810.988 -966.17)">
    <path id="Path_4199" data-name="Path 4199" d="M-4398.408,1025.794a13.938,13.938,0,0,0,12.545,13.738,15,15,0,0,0,.946,1.8h-15.365a3.5,3.5,0,0,1-3.474-3.961l3.793-28.82a3.5,3.5,0,0,1,3.472-3.048h12.067a27.794,27.794,0,0,1,2.459,6.643,14.51,14.51,0,0,0-2.3-.182A14.032,14.032,0,0,0-4398.408,1025.794Z" transform="translate(-407.201 -28.798)" fill="#f2a818"/>
    <path id="Path_4200" data-name="Path 4200" d="M-4319.259,1041.336h-16.68a14.927,14.927,0,0,1-.945-1.8,14.4,14.4,0,0,0,1.6.088,13.94,13.94,0,0,0,14.149-13.826,13.918,13.918,0,0,0-11.854-13.644,27.772,27.772,0,0,0-2.459-6.643h12.394a3.505,3.505,0,0,1,3.475,3.048l3.792,28.82A3.5,3.5,0,0,1-4319.259,1041.336Z" transform="translate(-456.179 -28.798)" fill="#fff"/>
    <path id="Path_4201" data-name="Path 4201" d="M-4343.158,979.38v-6.135a7.082,7.082,0,0,0-7.074-7.074,7.082,7.082,0,0,0-7.075,7.074v1.478a.778.778,0,0,0,.778.777.778.778,0,0,0,.778-.777v-1.478a5.525,5.525,0,0,1,5.519-5.519,5.525,5.525,0,0,1,5.519,5.519v6.135a2.046,2.046,0,0,0-1.269,1.893,2.047,2.047,0,0,0,2.047,2.047,2.047,2.047,0,0,0,2.047-2.047A2.048,2.048,0,0,0-4343.158,979.38Z" transform="translate(-441.228)" fill="#f2a818"/>
    <path id="Path_4202" data-name="Path 4202" d="M-4355.766,1049.33c-2.431,4.968-4.779,8.109-4.568,14.418.008.251.022.5.042.736a9.463,9.463,0,0,1-6.993-9.065,9.6,9.6,0,0,1,9.748-9.446,10.01,10.01,0,0,1,2.608.345A8.957,8.957,0,0,1-4355.766,1049.33Z" transform="translate(-433.923 -58.423)" fill="#f2a818"/>
    <path id="Path_4203" data-name="Path 4203" d="M-4328.831,1056.36a9.581,9.581,0,0,1-9.748,9.447,10.056,10.056,0,0,1-2.755-.382c-.02-.24-.033-.485-.042-.736-.211-6.309,2.138-9.45,4.568-14.417a8.947,8.947,0,0,0,.837-3.012A9.494,9.494,0,0,1-4328.831,1056.36Z" transform="translate(-452.882 -59.364)" fill="#fff"/>
  </g>
</svg>
