<svg xmlns="http://www.w3.org/2000/svg" width="188.072" height="46.368" viewBox="0 0 188.072 46.368">
  <g id="Group_1348" data-name="Group 1348" transform="translate(4960.007 -966.17)">
    <path id="Path_4199" data-name="Path 4199" d="M-4398.408,1025.794a13.938,13.938,0,0,0,12.545,13.738,15,15,0,0,0,.946,1.8h-15.365a3.5,3.5,0,0,1-3.474-3.961l3.793-28.82a3.5,3.5,0,0,1,3.472-3.048h12.067a27.794,27.794,0,0,1,2.459,6.643,14.51,14.51,0,0,0-2.3-.182A14.032,14.032,0,0,0-4398.408,1025.794Z" transform="translate(-407.201 -28.798)" fill="#f2a818"/>
    <path id="Path_4200" data-name="Path 4200" d="M-4319.259,1041.336h-16.68a14.927,14.927,0,0,1-.945-1.8,14.4,14.4,0,0,0,1.6.088,13.94,13.94,0,0,0,14.149-13.826,13.918,13.918,0,0,0-11.854-13.644,27.772,27.772,0,0,0-2.459-6.643h12.394a3.505,3.505,0,0,1,3.475,3.048l3.792,28.82A3.5,3.5,0,0,1-4319.259,1041.336Z" transform="translate(-456.179 -28.798)" fill="#fff"/>
    <path id="Path_4201" data-name="Path 4201" d="M-4343.158,979.38v-6.135a7.082,7.082,0,0,0-7.074-7.074,7.082,7.082,0,0,0-7.075,7.074v1.478a.778.778,0,0,0,.778.777.778.778,0,0,0,.778-.777v-1.478a5.525,5.525,0,0,1,5.519-5.519,5.525,5.525,0,0,1,5.519,5.519v6.135a2.046,2.046,0,0,0-1.269,1.893,2.047,2.047,0,0,0,2.047,2.047,2.047,2.047,0,0,0,2.047-2.047A2.048,2.048,0,0,0-4343.158,979.38Z" transform="translate(-441.228)" fill="#f2a818"/>
    <path id="Path_4202" data-name="Path 4202" d="M-4355.766,1049.33c-2.431,4.968-4.779,8.109-4.568,14.418.008.251.022.5.042.736a9.463,9.463,0,0,1-6.993-9.065,9.6,9.6,0,0,1,9.748-9.446,10.01,10.01,0,0,1,2.608.345A8.957,8.957,0,0,1-4355.766,1049.33Z" transform="translate(-433.923 -58.423)" fill="#f2a818"/>
    <path id="Path_4203" data-name="Path 4203" d="M-4328.831,1056.36a9.581,9.581,0,0,1-9.748,9.447,10.056,10.056,0,0,1-2.755-.382c-.02-.24-.033-.485-.042-.736-.211-6.309,2.138-9.45,4.568-14.417a8.947,8.947,0,0,0,.837-3.012A9.494,9.494,0,0,1-4328.831,1056.36Z" transform="translate(-452.882 -59.364)" fill="#fff"/>
    <path id="Path_4204" data-name="Path 4204" d="M-4947.455,1056.491c-5.084,0-11.155-2.219-12.471-7.092a2.769,2.769,0,0,1,1.921-3.32,2.675,2.675,0,0,1,.723-.1,2.723,2.723,0,0,1,2.6,2.023c.336,1.287,3.031,3.062,7.224,3.062,2.039,0,4.845-.446,6.043-1.7a2.011,2.011,0,0,0,.586-1.553c-.121-2.3-3.281-2.907-6.939-3.614-4.743-.916-10.644-2.056-10.775-7.957a6.918,6.918,0,0,1,1.993-5.17c1.942-1.982,5.256-3.118,9.092-3.118,5.242,0,9.738,2.332,11.187,5.8a2.707,2.707,0,0,1,.021,2.072,2.671,2.671,0,0,1-1.46,1.473,2.674,2.674,0,0,1-1.04.21,2.72,2.72,0,0,1-2.506-1.685c-.679-1.5-3.75-2.443-6.2-2.443-.944,0-5.657.129-5.657,2.668,0,1.718,2.913,2.32,6.285,3.017,5.092,1.052,11.429,2.362,11.429,8.576C-4935.4,1053.016-4940.131,1056.491-4947.455,1056.491Z" transform="translate(0 -45.228)" fill="#fff"/>
    <path id="Path_4205" data-name="Path 4205" d="M-4824.288,1057.784a2.717,2.717,0,0,1-2.732-2.7V1048.1h-11.493v6.989a2.7,2.7,0,0,1-2.7,2.7,2.717,2.717,0,0,1-2.732-2.7V1033.2a2.717,2.717,0,0,1,2.732-2.7,2.7,2.7,0,0,1,2.7,2.7v9.473h11.493V1033.2a2.717,2.717,0,0,1,2.732-2.7,2.7,2.7,0,0,1,2.7,2.7v21.89A2.7,2.7,0,0,1-4824.288,1057.784Z" transform="translate(-84.97 -47.097)" fill="#fff"/>
    <path id="Path_4206" data-name="Path 4206" d="M-4728.485,1056.392a14.433,14.433,0,0,1-14.541-14.289,14.433,14.433,0,0,1,14.541-14.289,14.433,14.433,0,0,1,14.542,14.289,14.064,14.064,0,0,1-4.275,10.149A14.606,14.606,0,0,1-4728.485,1056.392Zm0-23.15a9,9,0,0,0-9.112,8.861,9,9,0,0,0,9.112,8.862,9,9,0,0,0,9.113-8.862A9,9,0,0,0-4728.485,1033.242Z" transform="translate(-158.849 -45.129)" fill="#fff"/>
    <path id="Path_4207" data-name="Path 4207" d="M-4611.6,1057.784a2.7,2.7,0,0,1-2.7-2.7V1033.2a2.7,2.7,0,0,1,2.7-2.7h11.521c4.131,0,8.313,3,8.313,8.745,0,5.812-4.182,8.853-8.312,8.853h-8.789v6.989A2.717,2.717,0,0,1-4611.6,1057.784Zm11.521-15.113c1.4,0,2.885-1.2,2.885-3.425a3.084,3.084,0,0,0-2.885-3.316h-8.789v6.741Z" transform="translate(-253.091 -47.097)" fill="#fff"/>
    <path id="Path_4208" data-name="Path 4208" d="M-4500.854,1056.392A14.433,14.433,0,0,1-4515.4,1042.1a14.434,14.434,0,0,1,14.542-14.289,14.736,14.736,0,0,1,8.106,2.428,2.756,2.756,0,0,1,1.171,1.73,2.653,2.653,0,0,1-.409,2.043,2.65,2.65,0,0,1-2.232,1.22,2.667,2.667,0,0,1-1.5-.465,9.482,9.482,0,0,0-5.135-1.528,9,9,0,0,0-9.113,8.861,9,9,0,0,0,9.113,8.862,7.522,7.522,0,0,0,7.328-4.977h-5.384a2.7,2.7,0,0,1-2.7-2.7,2.7,2.7,0,0,1,2.7-2.7h8.461a2.681,2.681,0,0,1,2.7,2.608,12.418,12.418,0,0,1-3.472,9.2A13.166,13.166,0,0,1-4500.854,1056.392Z" transform="translate(-325.494 -45.129)" fill="#f2a818"/>
  </g>
</svg>
