<svg id="skull" xmlns="http://www.w3.org/2000/svg" width="61" height="61.006" viewBox="0 0 61 61.006">
  <path id="Path_1445" data-name="Path 1445" d="M154.5,181.38v-4.654a4.558,4.558,0,0,0,.111-.445c.143-1,.238-2.017.429-3a30,30,0,0,1,11.119-18.251,29.351,29.351,0,0,1,13.6-6.068c1.033-.175,2.065-.318,3.1-.461h4.416a2.523,2.523,0,0,0,.318.111,29.478,29.478,0,0,1,11.993,3.606,30.165,30.165,0,0,1,13.009,13.8,29.855,29.855,0,0,1,2.557,17.52,27.936,27.936,0,0,1-2.843,8.975c-2.24-3.4-4.463-6.783-6.7-10.182q-3.812-5.79-7.609-11.58c.778-.747,1.525-1.493,2.319-2.208a.921.921,0,0,1,.588-.175,9.4,9.4,0,0,0,4.368-.969,5.1,5.1,0,0,0,3-4.019,1.653,1.653,0,0,0-1.938-1.938,11.07,11.07,0,0,0-1.541.413c-.032-.032-.064-.048-.1-.079.127-.349.286-.7.381-1.064a1.8,1.8,0,0,0-2.335-2.351,5.337,5.337,0,0,0-3.622,3.1,9.325,9.325,0,0,0-.89,4.146,1.066,1.066,0,0,1-.143.6c-.572.635-1.175,1.239-1.763,1.858-.159-.222-.334-.445-.477-.683-2.748-4.178-5.464-8.371-8.228-12.533a3.009,3.009,0,0,0-5.194-.016q-4.479,6.791-8.9,13.581c-.683-.715-1.382-1.414-2.049-2.16a.832.832,0,0,1-.191-.572,9.369,9.369,0,0,0-.985-4.416,5.238,5.238,0,0,0-3.733-2.954A1.719,1.719,0,0,0,164.4,160.4a11.058,11.058,0,0,0,.413,1.414l-.064.064c-.381-.127-.762-.254-1.16-.381a1.689,1.689,0,0,0-2.351,1.843,4.723,4.723,0,0,0,.762,2.081c1.493,2.256,3.828,2.827,6.354,2.954.238.016.477.016.715.032.921.89,1.843,1.779,2.748,2.669q-3.431,5.218-6.846,10.436c-2.414,3.669-4.829,7.354-7.243,11.024a28.082,28.082,0,0,1-2.716-8.164C154.8,183.35,154.659,182.365,154.5,181.38Z" transform="translate(-154.5 -148.5)" fill="#7cc7fa"/>
  <path id="Path_1446" data-name="Path 1446" d="M208.353,253.247h-.222c-.254-.508-.731-.89-.731-1.557a4.636,4.636,0,0,1,2.684-4.162,18.657,18.657,0,0,1,3.288-1.128c.111-.048.238-.1.349-.143a1.632,1.632,0,0,0,1.763-.238c.365-.365.762-.683,1.144-1.048,1.033-.953,2.033-1.954,3.082-2.875.588-.524.635-.508.222-1.191a19.2,19.2,0,0,1-2.875-8.037,12.386,12.386,0,0,1,1.6-7.879.707.707,0,0,0-.127-1.032c-1.048-.969-2.065-1.97-3.1-2.954a2.094,2.094,0,0,0-2.113-.81.96.96,0,0,1-.3,0c-.238-.016-.477-.016-.715-.032a2.394,2.394,0,0,0-.651-.3,6.562,6.562,0,0,1-3.749-2.113,3.163,3.163,0,0,1-.349-4.463c.381.127.762.254,1.16.381.048,0,.1.016.127.016-.016-.032-.048-.048-.064-.079a11.876,11.876,0,0,1-.413-1.414,1.723,1.723,0,0,1,2.176-2.081,5.238,5.238,0,0,1,3.733,2.954,9.455,9.455,0,0,1,.985,4.416.918.918,0,0,0,.191.572c.667.731,1.366,1.445,2.049,2.16.588.635,1.175,1.271,1.7,1.843,1.207-.81,2.351-1.573,3.495-2.351.048-.032.1-.064.159-.111v.032a15.629,15.629,0,0,1,5.559-1.366,14.9,14.9,0,0,1,6.735,1.382l.016-.032a1.38,1.38,0,0,0,.159.111c1.048.7,2.1,1.382,3.193,2.113.588-.635,1.191-1.318,1.811-1.986.588-.619,1.191-1.223,1.763-1.858a.952.952,0,0,0,.143-.6,9.325,9.325,0,0,1,.889-4.146,5.37,5.37,0,0,1,3.622-3.1,1.8,1.8,0,0,1,2.335,2.351c-.1.365-.254.715-.381,1.064,0,.048.016.1.016.143.032-.016.064-.048.1-.064a10.505,10.505,0,0,1,1.541-.413,1.642,1.642,0,0,1,1.938,1.938,5.161,5.161,0,0,1-3,4.019,9.167,9.167,0,0,1-4.368.969.951.951,0,0,0-.588.175c-.794.715-1.557,1.477-2.319,2.208-.572.524-1.128,1.032-1.541,1.414.6,1.525,1.223,2.891,1.684,4.3a15.828,15.828,0,0,1,.429,2.621,19.439,19.439,0,0,1-2.732,9.546c-.238.413-.477.81-.731,1.223,1.843,1.541,3.653,3.05,5.464,4.559a.637.637,0,0,0,.413.175,10.8,10.8,0,0,1,4.463.858c.206.127.413.238.6.365,1.541,1.144,2.7,2.494,2.43,4.591-.683,1.493-1.97,1.048-3.193.937a3.418,3.418,0,0,0,0,.7,2.056,2.056,0,0,1-.445,2.192,2.263,2.263,0,0,1-2.3.207,4.521,4.521,0,0,1-.492-.191,6.348,6.348,0,0,1-3.113-3.86c-.143-1.1-.286-2.176-.445-3.272a.732.732,0,0,0-.159-.413c-.445-.445-.905-.874-1.366-1.3-1.128-1.112-2.24-2.224-3.463-3.431V247.2c0,.953-.016,1.906-.016,2.859,0,.492-.159.905-.683.969-1.255.143-2,.1-1.858-1.382a.821.821,0,0,0-.079-.524c-.175-.238-.4-.54-.667-.6-1.207-.3-1.731.127-1.731,1.35,0,.953-.27,1.207-1.207,1.191-.858-.016-1.064-.27-1.08-1.382,0-.921-.3-1.207-1.207-1.207-.969,0-1.255.286-1.271,1.223v.349c-.016.762-.3,1.017-1.128,1.017s-1.128-.27-1.144-1.017v-.413c0-.842-.3-1.144-1.144-1.16-1-.016-1.3.238-1.318,1.16v.349c-.016.858-.27,1.08-1.255,1.08-.937,0-1.191-.222-1.207-1.064-.016-.937-.032-1.858-.032-2.8v-3.447c-1.112,1.207-2.144,2.319-3.161,3.431-.413.429-.842.842-1.223,1.287a.907.907,0,0,0-.175.477c-.159,1.08-.3,2.144-.445,3.224a6.329,6.329,0,0,1-3.288,3.955,10.97,10.97,0,0,1-1.207.27,1.658,1.658,0,0,1-1.97-1.906c.016-.238.064-.477.1-.7.127-.334.254-.667.365-1l.032-.032c0,.016-.016.032-.016.048C209.084,252.961,208.719,253.1,208.353,253.247Zm19.093-17.965a4,4,0,0,0-4.1-3.908,3.927,3.927,0,1,0,4.1,3.908Zm3.415,0a4.093,4.093,0,1,0,4.1-3.923A4.012,4.012,0,0,0,230.861,235.282Zm6.02-7.481a1.693,1.693,0,0,0,1.747-1.7,1.83,1.83,0,0,0-1.747-1.747,1.723,1.723,0,0,0-1.7,1.827A1.556,1.556,0,0,0,236.881,227.8Zm-2.589-3.1a1.193,1.193,0,1,0-.032-2.383,1.286,1.286,0,0,0-1.223,1.191A1.16,1.16,0,0,0,234.292,224.7Zm-7.084,17.9h0a3.6,3.6,0,0,0,.826-.016c.159-.048.4-.238.413-.381a9.559,9.559,0,0,0,0-1.652c-.032-.4-.318-.508-.619-.222-.572.54-1.128,1.1-1.668,1.684-.254.286-.143.524.222.588A7.163,7.163,0,0,0,227.208,242.6Zm3.177,0a4.05,4.05,0,0,0,.762-.016.621.621,0,0,0,.413-.254c.048-.079-.048-.3-.143-.4-.524-.54-1.048-1.08-1.588-1.588-.318-.286-.588-.175-.635.27a6.11,6.11,0,0,0-.016.762C229.177,242.732,229.082,242.6,230.385,242.6Z" transform="translate(-198.489 -200.273)" fill="#33324b"/>
  <path id="Path_1447" data-name="Path 1447" d="M164.958,319.786c-1.191,0-2.383.016-3.574,0a3.04,3.04,0,0,1-2.812-1.572,2.993,2.993,0,0,1,.175-3.256l2-3.1c2.414-3.669,4.829-7.354,7.243-11.024q3.431-5.218,6.846-10.436c.556.508,1.1,1,1.668,1.525a12.871,12.871,0,0,0-2.065,6.528c-.143.191-.3.365-.429.572q-3.979,6.076-7.942,12.136a2.3,2.3,0,0,0-.206,2.414,2.107,2.107,0,0,0,2.081,1.223c-.175.111-.365.222-.54.349C165.879,316.323,164.7,317.657,164.958,319.786Z" transform="translate(-157.588 -267.86)" fill="#f4d272"/>
  <path id="Path_1448" data-name="Path 1448" d="M430.709,318.356c.27-2.1-.874-3.447-2.43-4.591a4.7,4.7,0,0,0-.6-.365,2.255,2.255,0,0,0,1.525-3.622c-2.3-3.51-4.591-7.021-6.894-10.531-.492-.747-1-1.461-1.493-2.208a17.693,17.693,0,0,0-.429-2.621c-.461-1.414-1.08-2.8-1.684-4.3.413-.381.969-.89,1.541-1.414q3.812,5.79,7.608,11.58c2.24,3.4,4.463,6.783,6.7,10.182.667,1.032,1.35,2.049,2,3.1a2.985,2.985,0,0,1-.445,4.05,3.024,3.024,0,0,1-2.128.778C432.885,318.372,431.789,318.356,430.709,318.356Z" transform="translate(-376.734 -266.43)" fill="#f4d272"/>
  <path id="Path_1449" data-name="Path 1449" d="M296.741,193.872c-.619.667-1.223,1.35-1.811,1.986-1.1-.715-2.144-1.414-3.193-2.113a1.37,1.37,0,0,0-.159-.111l-.016.032a2.13,2.13,0,0,0-.191-.477c-1.334-2.049-2.653-4.082-4-6.115a2.264,2.264,0,0,0-3.907,0c-1.16,1.731-2.3,3.463-3.431,5.21-.286.445-.524.921-.778,1.382v-.032a1.4,1.4,0,0,1-.159.1c-1.144.762-2.287,1.541-3.495,2.351-.524-.572-1.112-1.207-1.7-1.843,2.97-4.527,5.925-9.07,8.9-13.581a3.009,3.009,0,0,1,5.194.016q4.122,6.266,8.228,12.533Q296.5,193.538,296.741,193.872Z" transform="translate(-254.934 -174.302)" fill="#f4d272"/>
  <path id="Path_1450" data-name="Path 1450" d="M248.451,284.058a12.871,12.871,0,0,1,2.065-6.528c-.572-.524-1.128-1.017-1.668-1.525-.921-.89-1.843-1.779-2.748-2.669a1.913,1.913,0,0,0,.3,0,2.094,2.094,0,0,1,2.113.81c1.032.985,2.049,1.986,3.1,2.954a.719.719,0,0,1,.127,1.032,12.407,12.407,0,0,0-1.6,7.879,19.121,19.121,0,0,0,2.875,8.037c.429.683.365.667-.222,1.191-1.048.937-2.049,1.922-3.082,2.875-.381.349-.778.683-1.144,1.048a1.574,1.574,0,0,1-1.763.238c1.668-1.588,3.32-3.161,4.988-4.734C249.023,289.538,248.673,288.411,248.451,284.058Z" transform="translate(-231.55 -253.45)" fill="#29283d"/>
  <path id="Path_1451" data-name="Path 1451" d="M198.914,229.79c-1.128,1.525-1,2.97.349,4.463a6.651,6.651,0,0,0,3.749,2.113,3.045,3.045,0,0,1,.651.3c-2.526-.127-4.861-.7-6.354-2.954a4.927,4.927,0,0,1-.762-2.081A1.707,1.707,0,0,1,198.914,229.79Z" transform="translate(-189.86 -216.797)" fill="#282940"/>
  <path id="Path_1452" data-name="Path 1452" d="M240.6,479.355a6.428,6.428,0,0,0,3.288-3.955h27.464a6.349,6.349,0,0,0,3.113,3.86,29.829,29.829,0,0,1-13.454,5,30.188,30.188,0,0,1-19.839-4.479A5.365,5.365,0,0,1,240.6,479.355Z" transform="translate(-226.924 -423.475)" fill="#7cc7fa"/>
  <path id="Path_1453" data-name="Path 1453" d="M200.7,444.485c-.27-2.128.921-3.463,2.478-4.622.175-.127.365-.238.54-.349.191-.064.365-.127.556-.191a8.585,8.585,0,0,1,3.939-.635,20.576,20.576,0,0,0-3.288,1.128,4.582,4.582,0,0,0-2.684,4.162c0,.683.477,1.048.731,1.557C201.714,445.692,201.285,445.486,200.7,444.485Z" transform="translate(-193.327 -392.56)" fill="#2a293e"/>
  <path id="Path_1454" data-name="Path 1454" d="M216.6,479.645l1.1-.429-.016-.016c-.127.334-.254.667-.365,1C217.077,480.01,216.838,479.835,216.6,479.645Z" transform="translate(-206.736 -426.671)" fill="#7ebce9"/>
  <path id="Path_1455" data-name="Path 1455" d="M413.579,341.1c.508.731,1.017,1.461,1.493,2.208q3.455,5.266,6.894,10.531a2.266,2.266,0,0,1-1.525,3.622,10.7,10.7,0,0,0-4.463-.858.687.687,0,0,1-.413-.175c-1.811-1.509-3.622-3.018-5.464-4.559.254-.413.508-.81.731-1.223A18.967,18.967,0,0,0,413.579,341.1Z" transform="translate(-369.5 -310.507)" fill="#f5ba38"/>
  <path id="Path_1456" data-name="Path 1456" d="M212.075,356.719a8.764,8.764,0,0,0-3.939.635c-.191.064-.365.127-.556.191a2.13,2.13,0,0,1-2.081-1.223,2.335,2.335,0,0,1,.206-2.414q3.979-6.052,7.942-12.136c.127-.191.286-.381.429-.572.222,4.352.572,5.48,3.336,10.626-1.652,1.573-3.32,3.161-4.988,4.734A2.346,2.346,0,0,1,212.075,356.719Z" transform="translate(-197.192 -310.591)" fill="#f6ba38"/>
  <path id="Path_1457" data-name="Path 1457" d="M288.664,448.988H261.2c.143-1.08.3-2.144.445-3.224a1.02,1.02,0,0,1,.175-.477c.4-.445.81-.858,1.223-1.287,1.048,0,2.113.016,3.161.016.016.937.016,1.858.032,2.8.016.842.27,1.064,1.207,1.064.985,0,1.239-.222,1.255-1.08v-.349c.016-.921.318-1.175,1.318-1.16.842.016,1.128.3,1.144,1.16v.413c.016.747.318,1.017,1.144,1.017s1.112-.254,1.128-1.017v-.349c.016-.937.3-1.223,1.271-1.223.905,0,1.207.3,1.207,1.207.016,1.112.206,1.366,1.08,1.382.937.016,1.191-.254,1.207-1.191,0-1.223.524-1.652,1.731-1.35.254.064.477.365.667.6a.821.821,0,0,1,.079.524c-.143,1.493.6,1.541,1.858,1.382.524-.064.683-.477.683-.969,0-.953.016-1.906.016-2.859,1.16,0,2.3-.016,3.463-.016.461.429.921.858,1.366,1.3a.732.732,0,0,1,.159.413C288.378,446.8,288.521,447.892,288.664,448.988Z" transform="translate(-244.252 -397.062)" fill="#f3d172"/>
  <path id="Path_1458" data-name="Path 1458" d="M293.312,348.291a4.112,4.112,0,1,1-4.1-3.892A3.967,3.967,0,0,1,293.312,348.291Z" transform="translate(-264.355 -313.282)" fill="#f5b938"/>
  <path id="Path_1459" data-name="Path 1459" d="M358.3,348.123a4.093,4.093,0,1,1,4.082,3.939A4,4,0,0,1,358.3,348.123Z" transform="translate(-325.928 -313.115)" fill="#f5ba38"/>
  <path id="Path_1460" data-name="Path 1460" d="M307.7,229.625c.254-.461.492-.937.778-1.382,1.128-1.747,2.271-3.479,3.431-5.21a2.277,2.277,0,0,1,3.908,0c1.35,2.033,2.669,4.082,4,6.115a2.484,2.484,0,0,1,.191.477,14.946,14.946,0,0,0-6.735-1.382A15.322,15.322,0,0,0,307.7,229.625Z" transform="translate(-283.365 -210.262)" fill="#f5ba38"/>
  <path id="Path_1461" data-name="Path 1461" d="M387.2,303.462a1.56,1.56,0,0,1-1.7-1.636A1.723,1.723,0,0,1,387.2,300a1.83,1.83,0,0,1,1.747,1.747A1.715,1.715,0,0,1,387.2,303.462Z" transform="translate(-348.806 -275.934)" fill="#3e436c"/>
  <path id="Path_1462" data-name="Path 1462" d="M403.263,425.831c-1.16,0-2.3.016-3.463.016V422.4C401.023,423.591,402.151,424.719,403.263,425.831Z" transform="translate(-360.836 -378.893)" fill="#f3b838"/>
  <path id="Path_1463" data-name="Path 1463" d="M276.061,425.847c-1.048,0-2.113-.016-3.161-.016,1.017-1.112,2.049-2.224,3.161-3.431Z" transform="translate(-254.093 -378.893)" fill="#eab33b"/>
  <path id="Path_1464" data-name="Path 1464" d="M373.255,289.681A1.16,1.16,0,0,1,372,288.489a1.274,1.274,0,0,1,1.223-1.191,1.178,1.178,0,0,1,1.271,1.175A1.159,1.159,0,0,1,373.255,289.681Z" transform="translate(-337.452 -265.251)" fill="#3e426c"/>
  <path id="Path_1465" data-name="Path 1465" d="M328.982,402.062a4.78,4.78,0,0,1-.826-.016c-.365-.064-.492-.3-.222-.588.54-.588,1.1-1.144,1.668-1.684.3-.286.588-.159.619.222a9.553,9.553,0,0,1,0,1.652c-.016.143-.238.334-.413.381a2.88,2.88,0,0,1-.826.032Z" transform="translate(-300.263 -359.731)" fill="#f0b638"/>
  <path id="Path_1466" data-name="Path 1466" d="M348.886,402.243c-1.287,0-1.207.127-1.207-1.223a6.1,6.1,0,0,1,.016-.762c.048-.429.318-.556.635-.27.556.508,1.08,1.048,1.588,1.588.1.1.191.318.143.4a.621.621,0,0,1-.413.254A4.074,4.074,0,0,1,348.886,402.243Z" transform="translate(-316.991 -359.912)" fill="#f5b938"/>
  <path id="Path_1467" data-name="Path 1467" d="M218.864,232.3c.016.032.048.048.064.079-.048,0-.1-.016-.127-.016Z" transform="translate(-208.586 -218.989)" fill="#7cc7fa"/>
  <path id="Path_1468" data-name="Path 1468" d="M470.511,232.179c-.032.016-.064.048-.1.064,0-.048-.016-.1-.016-.143C470.448,232.132,470.479,232.164,470.511,232.179Z" transform="translate(-420.222 -218.821)" fill="#7cc7fa"/>
  <path id="Path_1469" data-name="Path 1469" d="M306.8,270.3a1.4,1.4,0,0,1,.159-.1A1.4,1.4,0,0,0,306.8,270.3Z" transform="translate(-282.608 -250.869)" fill="#f5ba38"/>
  <path id="Path_1470" data-name="Path 1470" d="M385.2,270.2a1.375,1.375,0,0,0,.159.111C385.311,270.279,385.264,270.248,385.2,270.2Z" transform="translate(-348.555 -250.869)" fill="#f5ba38"/>
  <path id="Path_1471" data-name="Path 1471" d="M223.5,479.048c0-.016.016-.032.016-.048,0,.016-.016.032-.016.048Z" transform="translate(-212.54 -426.503)" fill="#7ebce9"/>
</svg>
