<svg xmlns="http://www.w3.org/2000/svg" width="135" height="41.915" viewBox="0 0 135 41.915">
    <g id="Group_121" transform="translate(-25 -77.085)">
        <g id="handbag" transform="translate(-112.825 -127.715)">
            <path id="Path_1"
                d="M158.392,246.7H152.5a.684.684,0,0,0-.24-.076c-1.757-.164-3.514-.327-5.26-.5-.546-.055-.687-.207-.753-.72a.639.639,0,0,1,.8-.513c.349.044.7.076,1.048.12.895.1,1.779.229,2.674.284a70.244,70.244,0,0,0,15.136-.48,19.64,19.64,0,0,0,5.576-1.648,3.346,3.346,0,0,0,1.986-3.121,24.524,24.524,0,0,0-1.364-8.173c-.251-.851-.5-1.7-.775-2.652a10.943,10.943,0,0,1-6.722,6.253,22.176,22.176,0,0,1-6.187,1.233,1.181,1.181,0,0,0-.557.2,3.5,3.5,0,0,1-3.176-.011,1.257,1.257,0,0,0-.524-.186,24.955,24.955,0,0,1-4.911-.818,12.056,12.056,0,0,1-6.351-3.874,29.609,29.609,0,0,1-1.7-2.608,1.377,1.377,0,0,0-.065.164c-.5,1.811-1.048,3.612-1.506,5.424a16.151,16.151,0,0,0-.546,5.063,3.255,3.255,0,0,0,1.986,3.077c.938.393,1.9.742,2.859,1.091.491.175.611.295.622.808a.632.632,0,0,1-.829.4c-1.179-.447-2.368-.862-3.514-1.386a3.992,3.992,0,0,1-2.259-3.328,14.207,14.207,0,0,1,.393-5.511c.677-2.619,1.462-5.205,2.2-7.8a1.78,1.78,0,0,0,.065-.589c-.011-1.069-.12-2.15-.044-3.219a2.664,2.664,0,0,1,2.8-2.554h.709c-.076-1.353-.131-2.641,1.408-3.165V217.6a13.526,13.526,0,0,1,.48-4.485.8.8,0,0,0,0-.36,3.051,3.051,0,0,1,.447-2.379,11.5,11.5,0,0,1,7.2-5.249c.48-.12.96-.218,1.451-.327h2.379c.044.022.076.076.12.076a11.3,11.3,0,0,1,5.205,1.921c.458.316.513.5.316,1.026a.783.783,0,0,1-1.037-.022,9.985,9.985,0,0,0-7.955-1.517,10.13,10.13,0,0,0-6.689,4.845,1.818,1.818,0,0,0,1.67,2.772,1.907,1.907,0,0,0,1.55-1.048,6.668,6.668,0,0,1,11.425.131,1.818,1.818,0,1,0,3.088-1.91,6.451,6.451,0,0,0-.622-.917.813.813,0,0,1-.12-1c.557-.273.742-.229,1.1.273a6.375,6.375,0,0,1,.786,1.233,3.314,3.314,0,0,1,.349,1.517,6.086,6.086,0,0,0,.229,2.041,1.751,1.751,0,0,1,.055.316c.076,1.113.153,2.226.229,3.383a2.085,2.085,0,0,1,1.364,2.324c-.022.262,0,.535,0,.829.338,0,.6-.011.873,0A2.655,2.655,0,0,1,172,223.559a16.79,16.79,0,0,1-.011,2.772,4.526,4.526,0,0,0,.186,1.626c.677,2.3,1.375,4.605,1.975,6.94a14.809,14.809,0,0,1,.458,5.871,4.061,4.061,0,0,1-2.237,3.306,19.864,19.864,0,0,1-2.27.993,33.226,33.226,0,0,1-8.457,1.484c-.589.044-1.168.109-1.757.164h-.982C158.72,246.7,158.556,246.7,158.392,246.7Zm.338-11.305c.175,0,.338.011.5,0a19.739,19.739,0,0,0,4.627-.971c4.78-1.681,7.213-5.282,6.973-10.269a1.724,1.724,0,0,0-1.964-1.888c-8.414.022-16.827.011-25.241.011-.164,0-.327,0-.491.011a1.431,1.431,0,0,0-1.364,1.288,13.576,13.576,0,0,0-.065,2,9.184,9.184,0,0,0,2.837,6.417A11.6,11.6,0,0,0,150,234.809c1.233.295,2.51.469,3.8.7v-1.833h-2.39a2.043,2.043,0,0,1-2.117-1.3,2.593,2.593,0,0,1,.382-2.8,2.174,2.174,0,0,1,1.724-.7h2.433c0-.546-.011-1.048,0-1.55a1.993,1.993,0,0,1,2-2.008h.731a2,2,0,0,1,2.172,2.161v1.4c.873,0,1.691-.011,2.51,0a2.131,2.131,0,0,1,2.106,1.451,2.7,2.7,0,0,1-.633,2.826,2.192,2.192,0,0,1-1.517.513h-2.444C158.731,234.286,158.731,234.831,158.731,235.4Zm3.732-17.525c-.044-.906-.076-1.8-.164-2.7a1.007,1.007,0,0,0-.316-.5,8.22,8.22,0,0,1-.993-1.059,5.458,5.458,0,0,0-9.439,0,4.33,4.33,0,0,1-.982,1.015.818.818,0,0,0-.36.589c-.055.884-.1,1.768-.142,2.652,1.593.557,1.506,1.855,1.451,3.154h9.5C160.946,219.728,160.859,218.43,162.463,217.873Zm-4.976,13.4v-3.841a.774.774,0,0,0-.884-.873h-.491c-.851,0-1.069.218-1.069,1.059v7.475c0,.644.273.917.928.928h.611c.633-.011.906-.284.906-.938Zm-7.2-10.247c0-.458.011-.862,0-1.266a.7.7,0,0,0-.7-.709c-1.2-.022-2.4-.011-3.6,0a.637.637,0,0,0-.687.578c-.044.458-.011.917-.011,1.4Zm16.969,0c0-.447.011-.862,0-1.266a.686.686,0,0,0-.7-.709c-1.2-.022-2.4-.011-3.6,0a.691.691,0,0,0-.709.655c-.022.436-.011.862-.011,1.32Zm-13.466,9.1c-.906,0-1.768-.011-2.641.011a.748.748,0,0,0-.753.535,2.613,2.613,0,0,0,.022,1.233.949.949,0,0,0,.7.513c.873.065,1.768.022,2.663.022C153.787,231.667,153.787,230.914,153.787,230.128Zm4.943,2.313c.895,0,1.757.022,2.608-.011a.91.91,0,0,0,.884-.993c.033-.818-.2-1.266-.786-1.3-.895-.055-1.79-.011-2.706-.011ZM146.792,214.49c-.044,1.08-.1,2.182-.142,3.3H148.9v-2.543C148.233,215,147.556,214.763,146.792,214.49Zm16.838.753v2.543h2.237c-.055-1.135-.109-2.237-.153-3.3C164.962,214.763,164.285,215,163.63,215.243Z"
                fill="#040203" />
            <path id="Path_2" d="M326.3,588.8h0Z" transform="translate(-167.908 -342.096)"
                fill="#5d5d5d" />
            <path id="Path_3"
                d="M190.14,378.117v-1.724h2.444a2.3,2.3,0,0,0,1.517-.513,2.7,2.7,0,0,0,.633-2.826,2.144,2.144,0,0,0-2.106-1.451c-.818-.011-1.637,0-2.51,0v-1.4a2,2,0,0,0-2.172-2.161h-.731a1.987,1.987,0,0,0-2,2.008c-.011.5,0,1,0,1.55h-2.433a2.139,2.139,0,0,0-1.724.7,2.593,2.593,0,0,0-.382,2.8,2.051,2.051,0,0,0,2.117,1.3h2.39v1.833c-1.288-.229-2.564-.4-3.8-.7a11.75,11.75,0,0,1-5.456-2.815,9.229,9.229,0,0,1-2.837-6.417,13.576,13.576,0,0,1,.065-2,1.431,1.431,0,0,1,1.364-1.288c.164-.011.327-.011.491-.011,8.414,0,16.827.011,25.241-.011a1.729,1.729,0,0,1,1.964,1.888c.24,4.987-2.193,8.588-6.973,10.269a20.308,20.308,0,0,1-4.627.971C190.479,378.128,190.315,378.117,190.14,378.117Z"
                transform="translate(-31.41 -142.718)" fill="#f6bb4f" />
            <path id="Path_4"
                d="M239.73,452.8a24.524,24.524,0,0,1,1.364,8.173,3.363,3.363,0,0,1-1.986,3.121,19.638,19.638,0,0,1-5.576,1.648,70.2,70.2,0,0,1-15.136.48c-.895-.055-1.79-.186-2.674-.284-1.735-2.488-2.052-5.3-1.953-8.283.284.12.5.218.731.306a23.971,23.971,0,0,0,8.435,1.56c1.048.022,2.1-.022,3.143-.076.917-.055,1.844-.12,2.75-.262a19.716,19.716,0,0,0,5.074-1.462,13.02,13.02,0,0,0,4.878-3.667C239.1,453.64,239.4,453.215,239.73,452.8Z"
                transform="translate(-67.642 -220.937)" fill="#f6bb4f" />
            <path id="Path_5"
                d="M181.8,431.241c-.316.415-.633.84-.96,1.255a13.02,13.02,0,0,1-4.878,3.667,19.469,19.469,0,0,1-5.074,1.462c-.906.142-1.833.207-2.75.262-1.048.055-2.1.109-3.143.076a23.97,23.97,0,0,1-8.435-1.56c-.229-.087-.447-.185-.731-.306-.1,2.979.218,5.795,1.953,8.283-.349-.033-.7-.065-1.048-.12a.639.639,0,0,0-.8.513c-.567-.12-1.135-.24-1.713-.36-.011-.513-.12-.633-.622-.808-.96-.349-1.921-.7-2.859-1.091a3.255,3.255,0,0,1-1.986-3.077,16.151,16.151,0,0,1,.546-5.063c.458-1.822.993-3.623,1.506-5.424a.529.529,0,0,1,.065-.164,29.605,29.605,0,0,0,1.7,2.608,12.167,12.167,0,0,0,6.351,3.874,25.786,25.786,0,0,0,4.911.818,1.165,1.165,0,0,1,.524.186,3.5,3.5,0,0,0,3.176.011,1.479,1.479,0,0,1,.557-.2,22.575,22.575,0,0,0,6.187-1.233A10.943,10.943,0,0,0,181,428.6C181.3,429.539,181.547,430.39,181.8,431.241Z"
                transform="translate(-9.71 -199.378)" fill="#cc9d46" />
            <path id="Path_6"
                d="M238.754,217.735c.437.437.884.873,1.32,1.32a.8.8,0,0,0,.12,1,9,9,0,0,1,.622.917,1.818,1.818,0,1,1-3.088,1.91,6.668,6.668,0,0,0-11.425-.131,1.922,1.922,0,0,1-1.55,1.048,1.722,1.722,0,0,1-1.681-.873,1.759,1.759,0,0,1,.011-1.9,10.13,10.13,0,0,1,6.689-4.845,9.985,9.985,0,0,1,7.955,1.517A.768.768,0,0,0,238.754,217.735Z"
                transform="translate(-75.702 -9.912)" fill="#ecce95" />
            <path id="Path_7"
                d="M298.044,408.825v3.8c0,.655-.273.928-.906.938h-.611c-.644-.011-.917-.284-.928-.928v-7.475c0-.829.229-1.059,1.069-1.059h.491c.589.011.884.284.884.873Z"
                transform="translate(-140.558 -177.551)" fill="#ecce95" />
            <path id="Path_8"
                d="M211.013,337.308H206c0-.48-.033-.949.011-1.4a.637.637,0,0,1,.687-.578q1.8-.016,3.6,0a.692.692,0,0,1,.7.709C211.034,336.446,211.013,336.85,211.013,337.308Z"
                transform="translate(-60.728 -116.281)" fill="#f6bb4f" />
            <path id="Path_9"
                d="M366.462,337.308h-5.02c0-.458-.022-.895.011-1.32a.691.691,0,0,1,.709-.655q1.8-.016,3.6,0a.692.692,0,0,1,.7.709C366.472,336.446,366.462,336.861,366.462,337.308Z"
                transform="translate(-199.208 -116.281)" fill="#f6bb4f" />
            <path id="Path_10"
                d="M255.971,436.842v2.313c-.906,0-1.79.044-2.663-.022a.955.955,0,0,1-.7-.513,2.613,2.613,0,0,1-.022-1.233.72.72,0,0,1,.753-.535C254.2,436.82,255.065,436.842,255.971,436.842Z"
                transform="translate(-102.183 -206.714)" fill="#f6bb4f" />
            <path id="Path_11"
                d="M329.4,439.078v-2.313c.917,0,1.811-.044,2.706.011.6.033.818.48.786,1.3a.916.916,0,0,1-.884.993C331.157,439.1,330.295,439.078,329.4,439.078Z"
                transform="translate(-170.669 -206.637)" fill="#f6bb4f" />
            <path id="Path_12"
                d="M218.753,293.6c.764.273,1.44.513,2.1.753V296.9H218.6C218.655,295.782,218.709,294.68,218.753,293.6Z"
                transform="translate(-71.96 -79.11)" fill="#ecce95" />
            <path id="Path_13"
                d="M374.3,294.442c.655-.24,1.331-.48,2.084-.742.055,1.059.1,2.161.153,3.3H374.3Z"
                transform="translate(-210.67 -79.199)" fill="#ecce95" />
        </g>
        <text id="Shop_Go" transform="translate(72 105)" fill="#7856a3" font-size="20"
            font-family="Montserrat-Bold, Montserrat" font-weight="700">
            <tspan x="0" y="0">Shop</tspan>
            <tspan y="0" fill="#fff"></tspan>
            <tspan y="0" fill="#f2a818">Go</tspan>
        </text>
    </g>
</svg>
