<svg xmlns="http://www.w3.org/2000/svg" width="15.726" height="18.866" viewBox="0 0 15.726 18.866">
  <g id="user" transform="translate(-135.992 -148.8)">
    <path id="Path_1383" d="M210.665,148.8c.244.051.493.092.737.147a4.576,4.576,0,0,1,3.326,3.694,4.4,4.4,0,0,1-.649,3.132,4.452,4.452,0,0,1-3.551,2.1,4.535,4.535,0,0,1-3.754-7.471,4.5,4.5,0,0,1,2.524-1.511c.175-.037.35-.064.52-.092Z" transform="translate(-66.492 0)" fill="#7856a3"/>
    <path id="Path_1384" d="M143.855,356.623h-4.477a3.548,3.548,0,0,1-2.123-.6,2.8,2.8,0,0,1-1.221-2.1,9.775,9.775,0,0,1,.636-4.551A3.844,3.844,0,0,1,138.4,347.3a3.453,3.453,0,0,1,1.713-.415,1.32,1.32,0,0,1,.567.193c.286.157.548.35.824.52a4.188,4.188,0,0,0,4.717-.009c.221-.134.442-.267.649-.419a1.581,1.581,0,0,1,1.239-.258,3.487,3.487,0,0,1,2.672,1.916,7.9,7.9,0,0,1,.861,3.058,14.938,14.938,0,0,1,.074,1.635,3.007,3.007,0,0,1-2.819,3.072,5.381,5.381,0,0,1-.608.032Z" transform="translate(0 -188.957)" fill="#7856a3"/>
  </g>
</svg>
