<svg id="Cosmetics" xmlns="http://www.w3.org/2000/svg" width="23.254" height="23.238"
    viewBox="0 0 23.254 23.238">
    <path id="Path_1343"
        d="M146.075,308.908c.323,0,.594-.006.872,0a.378.378,0,0,1,.42.42,3.285,3.285,0,0,1-3.344,3.454h-5.714a3.284,3.284,0,0,1-3.338-3.454.381.381,0,0,1,.42-.42c.271-.006.549,0,.814,0-1.007-2.944-.394-5.378,2.324-7.05a5.307,5.307,0,0,1,5.953.426,5.363,5.363,0,0,1,1.963,3.022A5.446,5.446,0,0,1,146.075,308.908Zm-10.3.788a2.5,2.5,0,0,0,2.563,2.311c1.885.007,3.777.013,5.662-.006a3.059,3.059,0,0,0,1.014-.187,2.367,2.367,0,0,0,1.537-2.118h-3.093a.362.362,0,0,0,0,.084,1.159,1.159,0,0,1-1.175,1.459h-2.253a1.475,1.475,0,0,1-.291-.026,1.2,1.2,0,0,1-.859-1.511C137.85,309.7,136.823,309.7,135.771,309.7Zm8.522-.788c.252,0,.471-.013.684.006a.285.285,0,0,0,.316-.187,4.642,4.642,0,0,0-3.125-6.657,4.364,4.364,0,0,0-4.642,1.666,4.466,4.466,0,0,0-.478,5c.032.071.1.174.168.181.265.019.536.006.826.006a3.887,3.887,0,1,1,6.25-.013Zm-4.649,0c.523,0,1,.006,1.472-.006a.277.277,0,0,0,.174-.1q1.307-1.666,2.608-3.338a.291.291,0,0,0,.026-.271c-.187-.3-.4-.6-.626-.93C142.066,305.834,140.871,307.352,139.645,308.908Zm3-5.075c-.284-.1-.529-.187-.781-.252a.271.271,0,0,0-.232.084q-1.579,2.082-3.138,4.177a.221.221,0,0,0-.032.207c.116.2.252.387.394.607C140.122,307.035,141.362,305.453,142.64,303.833Zm-1.9-.3c-1.621.142-3.106,2.137-2.589,3.454C139.006,305.841,139.858,304.7,140.736,303.536Zm.433,6.147h-1.085a.406.406,0,0,0-.458.387c0,.226.181.387.465.387q1.085.01,2.169,0a.406.406,0,0,0,.458-.387c0-.226-.181-.381-.465-.387C141.892,309.676,141.53,309.682,141.168,309.682Zm1.027-.775c.323,0,.581.013.839-.006a.482.482,0,0,0,.31-.129,2.821,2.821,0,0,0,.833-1.5c.058-.3.077-.607.11-.91l-.084-.019C143.544,307.19,142.886,308.023,142.2,308.908Z"
        transform="translate(-134.968 -289.547)" fill="#fdfdfd" />
    <path id="Path_1344"
        d="M384.677,153.488c0-.93-.019-1.859.006-2.783a12.024,12.024,0,0,0-.252-2.634,30.222,30.222,0,0,1-.529-5.333,1.792,1.792,0,0,0-.116-.581c-.342-.885-.7-1.763-1.052-2.647a1.429,1.429,0,0,1,.607-1.885,5.224,5.224,0,0,1,5.778-.006,1.439,1.439,0,0,1,.613,1.885c-.362.923-.736,1.84-1.1,2.757a.844.844,0,0,0-.077.3,29.729,29.729,0,0,1-.349,4.481c-.11.742-.265,1.472-.394,2.208a2.21,2.21,0,0,0-.032.362q0,3.922-.006,7.845a1.519,1.519,0,0,1-1.207,1.517,1.54,1.54,0,0,1-1.885-1.466C384.67,156.168,384.677,154.825,384.677,153.488Zm2.415-11.525c.239,0,.446.013.652-.006a.291.291,0,0,0,.207-.136c.362-.878.717-1.763,1.059-2.647a.679.679,0,0,0-.278-.885,4.567,4.567,0,0,0-5.017.006.665.665,0,0,0-.284.839c.349.9.717,1.795,1.078,2.692a.233.233,0,0,0,.142.129c.232.013.465.006.691.006.006-.032.013-.045.006-.052-.09-.452-.181-.9-.265-1.349-.052-.271.058-.484.284-.529a.389.389,0,0,1,.478.355c.1.458.187.917.284,1.369a.971.971,0,0,0,.084.213c.019,0,.045-.006.065-.006a1.793,1.793,0,0,0,.052-.174c.1-.471.187-.949.29-1.42a.381.381,0,0,1,.42-.349c.265.019.4.239.336.555C387.279,141.034,387.188,141.479,387.091,141.963Zm.691.794h-3.1a30.937,30.937,0,0,0,.678,6.037.256.256,0,0,0,.194.136c.316.013.626.006.943.006.562,0,.575,0,.671-.536.148-.846.284-1.692.426-2.563h-.917c-.284,0-.452-.142-.458-.381s.161-.387.452-.387h.988C387.7,144.281,387.743,143.526,387.782,142.758Zm-2.331,6.966v7.56a1.248,1.248,0,0,0,.006.22.789.789,0,0,0,.646.717.745.745,0,0,0,.794-.387,1.161,1.161,0,0,0,.1-.465c.006-2.473.006-4.952.006-7.425v-.22Z"
        transform="translate(-366.61 -135.774)" fill="#fdfdfd" />
    <path id="Path_1345"
        d="M342.487,303.249c.329.116.387.194.387.536v5.953c0,.387-.123.51-.5.51h-2.88c-.368,0-.491-.123-.491-.491V303.8c0-.355.045-.42.387-.555,0-1.259.032-2.531-.013-3.8a.918.918,0,0,1,1.3-.936c.226.1.478.155.7.245a1.721,1.721,0,0,1,1.1,1.614C342.487,301.332,342.487,302.281,342.487,303.249Zm-.4,6.217v-3.854h-2.292v3.854Zm-1.924-6.211h1.55c0-.988.013-1.95-.006-2.918a.91.91,0,0,0-.633-.865c-.226-.084-.458-.148-.684-.232-.161-.065-.226-.019-.226.148Zm-.374.807v.749h2.292v-.749Z"
        transform="translate(-325.827 -287.013)" fill="#fdfdfd" />
    <path id="Path_1346"
        d="M262.781,125.494c-.052-.039-.194-.1-.239-.207a2.938,2.938,0,0,0-1.278-1.3.784.784,0,0,1-.265-.239.36.36,0,0,1,.181-.542,2.271,2.271,0,0,0,1.362-1.349.5.5,0,0,1,.355-.22c.187-.032.31.11.368.284a2.033,2.033,0,0,0,.846,1.052,4.476,4.476,0,0,0,.433.213.393.393,0,0,1,.077.723c-.142.1-.291.2-.439.3a2.242,2.242,0,0,0-.9,1.007A.487.487,0,0,1,262.781,125.494Zm.11-2.557c-.226.232-.458.471-.684.71.2.187.445.413.678.633.245-.226.484-.452.671-.626C263.323,123.409,263.1,123.163,262.89,122.938Z"
        transform="translate(-252.803 -121.629)" fill="#fdfdfd" />
    <path id="Path_1347"
        d="M307.216,177.418a2.08,2.08,0,0,1-.271.355,4.2,4.2,0,0,1-.5.336,2.12,2.12,0,0,0-.839.943c-.084.181-.187.323-.407.323s-.323-.148-.407-.323a2.2,2.2,0,0,0-.839-.943,2.73,2.73,0,0,1-.478-.329.59.59,0,0,1-.194-.4.487.487,0,0,1,.271-.316A2.139,2.139,0,0,0,304.724,176c.039-.077.071-.161.1-.245a.384.384,0,0,1,.374-.258.365.365,0,0,1,.368.258,2.156,2.156,0,0,0,1.3,1.311C307,177.121,307.081,177.276,307.216,177.418Zm-2.686.116c.194.181.439.407.671.626.245-.226.484-.452.646-.607-.22-.258-.439-.517-.639-.749C304.982,177.043,304.756,177.288,304.53,177.534Z"
        transform="translate(-292.416 -172.022)" fill="#fdfdfd" />
    <path id="Path_1348"
        d="M241.022,213.413a1.806,1.806,0,0,1-.278.362c-.2.161-.452.265-.633.439a6.459,6.459,0,0,0-.684.826c-.11.155-.187.323-.407.323a.428.428,0,0,1-.407-.316,2.622,2.622,0,0,0-1.117-1.13c-.194-.123-.433-.213-.413-.51s.278-.342.478-.439a2.069,2.069,0,0,0,1.065-1.162.405.405,0,0,1,.381-.31.366.366,0,0,1,.374.252,2.175,2.175,0,0,0,1.317,1.324C240.816,213.123,240.9,213.278,241.022,213.413Zm-2.008-.6c-.22.232-.446.484-.665.717.194.181.433.407.665.626.245-.226.484-.452.665-.62Z"
        transform="translate(-230.49 -205.693)" fill="#fdfdfd" />
</svg>
