<svg id="Home_Decor" data-name="Home Decor" xmlns="http://www.w3.org/2000/svg" width="24.387"
    height="24.398" viewBox="0 0 24.387 24.398">
    <path id="Path_1349"
        d="M200.6,431.881a.65.65,0,0,1-.649.339q-8.442-.009-16.89-.006c-.518,0-.661-.143-.661-.667v-4.764a2.193,2.193,0,0,1,1.566-2.215.208.208,0,0,0,.161-.238,2.777,2.777,0,0,1,.226-1.3,2.217,2.217,0,0,1,2.09-1.28c.977-.018,1.953-.006,2.93,0a.948.948,0,0,1,.256.036.467.467,0,0,1,.339.465.457.457,0,0,1-.369.441,1.548,1.548,0,0,1-.333.03c-.935,0-1.876-.006-2.811,0a1.242,1.242,0,0,0-1.322.971,3.325,3.325,0,0,0-.036.733.173.173,0,0,0,.107.125,2.234,2.234,0,0,1,1.614,1.9.068.068,0,0,0,.018.036h9.291a7.6,7.6,0,0,1,.31-.846,2.017,2.017,0,0,1,1.239-1.042.266.266,0,0,0,.22-.3,1.519,1.519,0,0,0-.393-1.227,1.352,1.352,0,0,0-1.007-.351c-.953.006-1.906,0-2.859,0a1.81,1.81,0,0,1-.31-.024.456.456,0,0,1-.405-.453.465.465,0,0,1,.393-.471,1.027,1.027,0,0,1,.232-.024c.983,0,1.971-.012,2.954,0a2.246,2.246,0,0,1,2.132,1.292,2.668,2.668,0,0,1,.226,1.274c0,.131.018.208.167.262a2.173,2.173,0,0,1,1.5,1.584c.018.066.042.137.066.2C200.6,428.195,200.6,430.041,200.6,431.881Zm-4.437-2.549h-9.32v1.912h9.32Zm-10.315,1.924c.012-.036.024-.048.024-.065,0-1.507.012-3.013-.006-4.526a1.224,1.224,0,0,0-1.078-1.227,1.252,1.252,0,0,0-1.441,1.322c-.006,1.435,0,2.871,0,4.312,0,.06.012.119.018.185Zm11.274-.012h2.525c0-1.548.006-3.079-.006-4.61a1.177,1.177,0,0,0-.6-1.024,1.262,1.262,0,0,0-1.918,1.12c-.012.691,0,1.382,0,2.073C197.122,429.612,197.122,430.416,197.122,431.244Zm-.989-2.894c.185-.625-.036-.941-.661-.941h-7.778c-.8,0-.893.1-.858.887,0,.012.012.024.024.048Q191.488,428.353,196.134,428.35Z"
        transform="translate(-176.214 -410.866)" fill="#fdfdfd" />
    <path id="Path_1350"
        d="M287.9,245.895c-.042.1-.077.2-.125.3a1.366,1.366,0,0,1-1.28.84q-4.931.009-9.857,0a1.4,1.4,0,0,1-1.406-1.411q-.009-2.537,0-5.074a1.411,1.411,0,0,1,1.406-1.417q4.931-.009,9.857,0a1.4,1.4,0,0,1,1.328.971,1.442,1.442,0,0,0,.077.167Zm-.953-2.888v-2.275c0-.47-.173-.649-.643-.649H276.82c-.47,0-.643.179-.643.649v4.693c0,.494.167.661.655.661h4.884c.065,0,.137-.006.2-.006l-3.127-3.127c-.048.042-.107.1-.173.161-.274.274-.542.56-.828.822a.464.464,0,0,1-.816-.244.7.7,0,0,1,.191-.476c.369-.4.768-.78,1.155-1.167s.6-.387.977,0c1.3,1.3,2.6,2.609,3.913,3.907a.439.439,0,0,0,.28.131c.959.012,1.924.006,2.883.006a.508.508,0,0,0,.572-.554c.006-.351.006-.7,0-1.048a.285.285,0,0,0-.06-.167c-.721-.738-1.441-1.477-2.18-2.227-.453.453-.87.875-1.292,1.3a2.217,2.217,0,0,1-.214.191.438.438,0,0,1-.53.012.425.425,0,0,1-.191-.518.814.814,0,0,1,.208-.31c.512-.518,1.03-1.036,1.548-1.554.328-.328.572-.328.893-.006.542.536,1.078,1.078,1.62,1.614C286.8,242.875,286.855,242.923,286.944,243.007Z"
        transform="translate(-263.51 -239.125)" fill="#fdfdfd" />
    <path id="Path_1351"
        d="M102.673,387.006a.653.653,0,0,1-.322-.768,2.415,2.415,0,0,1,2.394-2.09h.411V371.116a1.319,1.319,0,0,1,.042-.375.46.46,0,0,1,.506-.31.468.468,0,0,1,.4.411,2.69,2.69,0,0,1,.012.31v12.936a10.55,10.55,0,0,1,1.143.214,2.415,2.415,0,0,1,1.566,2.031.64.64,0,0,1-.333.673Zm5.086-.959a1.372,1.372,0,0,0-1.269-.941q-.9-.027-1.8,0a1.322,1.322,0,0,0-1.263.941Z"
        transform="translate(-100.917 -362.607)" fill="#fdfdfd" />
    <path id="Path_1352"
        d="M81.138,246.013c0,.733.006,1.429,0,2.126a.477.477,0,0,1-.459.488.489.489,0,0,1-.488-.435c-.006-.077-.006-.161-.006-.238v-1.942H79.167c-.578,0-.768-.268-.56-.8q1.072-2.778,2.144-5.562c.143-.375.25-.453.655-.453h3.716a.522.522,0,0,1,.607.411q1.09,2.823,2.174,5.652c.173.459-.03.75-.518.75H81.138Zm5.628-.959a.394.394,0,0,0-.018-.107c-.6-1.548-1.2-3.1-1.787-4.651-.054-.143-.149-.137-.262-.137-.965,0-1.936.006-2.9-.006a.266.266,0,0,0-.3.214q-.652,1.724-1.316,3.436c-.161.411-.316.822-.482,1.251Z"
        transform="translate(-78.525 -239.196)" fill="#fdfdfd" />
    <path id="Path_1353" d="M106.98,409.6a.474.474,0,1,1-.482.459A.484.484,0,0,1,106.98,409.6Z"
        transform="translate(-104.832 -399.445)" fill="#fdfdfd" />
    <path id="Path_1354"
        d="M328.245,422.469a.475.475,0,0,1-.464.477.467.467,0,0,1-.483-.453.494.494,0,0,1,.477-.494A.483.483,0,0,1,328.245,422.469Z"
        transform="translate(-312.482 -411.107)" fill="#fdfdfd" />
</svg>
