<svg id="kids" xmlns="http://www.w3.org/2000/svg" width="22.843" height="24.903"
    viewBox="0 0 22.843 24.903">
    <path id="Path_1366"
        d="M71.854,169.061v-.313c0-1.533.015-3.072,0-4.605-.01-.606.3-.938.874-.884a2.036,2.036,0,0,0,.244,0,.6.6,0,0,0,.093-.01,1.12,1.12,0,0,1,1.289-1.04h1.46c.933,0,1.162.166,1.446,1.05h.479a.681.681,0,0,1,.713.7c0,.186,0,.376,0,.562v.557a3.889,3.889,0,0,0,1.445-.156c.327-.083.454-.371.669-.571-.293-.22-.591-.41-.859-.64a4.583,4.583,0,0,1-1.621-3.194c-.088-1.079-.054-2.173-.059-3.262,0-.171-.029-.278-.21-.347a.635.635,0,0,1-.43-.7,5.776,5.776,0,0,1,4.693-5.469,3.521,3.521,0,0,1,.557-.049c.747,0,1.494,0,2.242,0a5.36,5.36,0,0,1,4.3,2.056,5.558,5.558,0,0,1,1.26,2.906.733.733,0,0,1-.171.654c-.186.2-.142.352.107.444a1.825,1.825,0,0,1,.938.781,2.654,2.654,0,0,1-.01,2.92,1.844,1.844,0,0,1-1.226.855.306.306,0,0,0-.21.147,5.427,5.427,0,0,1-2.183,2.715.647.647,0,0,0,.088.107,3.97,3.97,0,0,1,1.25,2.915c.02.82,0,1.641,0,2.461,0,.293-.156.474-.381.469s-.366-.181-.366-.483c0-.806,0-1.607,0-2.412a3.274,3.274,0,0,0-1.143-2.535.334.334,0,0,0-.371-.068c-.386.122-.776.215-1.172.3a.325.325,0,0,0-.273.225,1.546,1.546,0,0,1-2.9-.059.307.307,0,0,0-.273-.225,3.318,3.318,0,0,1-.586-.147.338.338,0,0,0-.41.093,3.333,3.333,0,0,0-1,2.08.9.9,0,0,1,.991.752,3.444,3.444,0,0,1,.146.41c.063.342.293.43.591.425h.488a.382.382,0,0,1,.42.352.376.376,0,0,1-.386.381c-.112.01-.23.01-.342.01s-.225-.01-.293-.015c-.122.4-.239.772-.366,1.172a1.451,1.451,0,0,0,.2.044,5.552,5.552,0,0,0,5.435-2.925.683.683,0,0,0,.068-.606.578.578,0,0,0-.5-.371.6.6,0,0,0-.635.356,4.257,4.257,0,0,1-1.162,1.421,4.654,4.654,0,0,1-.523.352.356.356,0,0,1-.513-.1.362.362,0,0,1,.132-.523,3.9,3.9,0,0,0,1.455-1.563,1.352,1.352,0,0,1,2.378,1.284,6.064,6.064,0,0,1-4.337,3.3,11.757,11.757,0,0,1-1.763.112c-.088,0-.176,0-.273,0v1.03A2.246,2.246,0,0,0,81.5,172a1.4,1.4,0,0,1,2.041-.532.214.214,0,0,0,.273,0,1.406,1.406,0,0,1,2.046.518c.034.059.107.137.166.137.737.01,1.475,0,2.251,0,0-.21,0-.4,0-.591,0-.293.156-.474.381-.469s.361.181.366.459c0,.2,0,.405,0,.576a6.061,6.061,0,0,1,.713.356,1.693,1.693,0,0,1,.654,1.914,1.729,1.729,0,0,1-1.626,1.206c-1.4,0-2.793.015-4.19-.01a2.158,2.158,0,0,1-.752-.23c-.1-.044-.166-.088-.278,0a1.4,1.4,0,0,1-.85.249q-6.5-.007-12.99,0c-.552,0-.806-.249-.806-.8v-4.947a.69.69,0,0,1,.791-.786C70.4,169.061,71.1,169.061,71.854,169.061Zm17.551-12.243c-.107.02-.2.039-.3.059-.3.054-.483-.039-.527-.273s.093-.381.391-.454a3.359,3.359,0,0,0,.527-.181.275.275,0,0,0,.176-.347,4.878,4.878,0,0,0-3.453-4,8.568,8.568,0,0,0-3.98-.151,4.928,4.928,0,0,0-4.107,4.605.206.206,0,0,0,.171.244.926.926,0,0,0,.962-.234,3.884,3.884,0,0,0,.86-1.231c.122-.244.313-.327.508-.239s.254.273.176.537a4.977,4.977,0,0,0-.166.757.574.574,0,0,0,.283.625.588.588,0,0,0,.684-.083,6.134,6.134,0,0,0,.669-.664,6.333,6.333,0,0,0,.386-.562.347.347,0,0,1,.469-.132.34.34,0,0,1,.2.425c-.02.078-.039.156-.054.239a.64.64,0,0,0,.523.84,1.194,1.194,0,0,0,1.094-.239,4.129,4.129,0,0,0,1.1-1.494.573.573,0,0,1,.337-.264c.176-.049.278.1.376.239a9.973,9.973,0,0,0,.708.918c.19.215.234.4.073.576a.379.379,0,0,1-.562-.015c-.2-.171-.4-.347-.571-.493-.254.293-.518.645-.825.952a1.858,1.858,0,0,1-2.92-.21,1.991,1.991,0,0,1-1.377.776,1.258,1.258,0,0,1-1.25-.816l-1.25.674c0,.205,0,.474,0,.737.029.908-.01,1.826.107,2.72a4.056,4.056,0,0,0,3.736,3.521c.776.063,1.558.044,2.334.054a4.006,4.006,0,0,0,1.587-.317,4.528,4.528,0,0,0,2.73-2.979c.093-.3.19-.391.454-.371a1.026,1.026,0,0,0,.982-.513,1.93,1.93,0,0,0,.22-1.68,1.215,1.215,0,0,0-.943-.972C89.494,157.321,89.454,157.292,89.406,156.818ZM77.7,169.056v-5.05H72.616v5.05Zm-2.964,5.8v-5.04H69.642v5.04Zm.757,0h5.1v-3.892H79.219l.5.869a.95.95,0,0,1,.01,1c-.137.239-.273.479-.415.713a.98.98,0,0,1-.869.493q-.4.007-.806,0a.971.971,0,0,1-.864-.5c-.146-.244-.288-.488-.425-.737a.9.9,0,0,1,0-.928c.137-.249.283-.493.425-.737a.987.987,0,0,1,.864-.5c.132,0,.264,0,.352,0-.039-.293-.078-.557-.112-.816H75.488Zm11.183.015c.684,0,1.363,0,2.046,0a1,1,0,0,0,.952-.669.973.973,0,0,0-.3-1.079,1.087,1.087,0,0,0-.747-.234h-2.9c-.317,0-.4-.073-.483-.366a.85.85,0,0,0-.161-.317.618.618,0,0,0-.708-.176.649.649,0,0,0-.449.654c-.01.469,0,.943,0,1.411a.7.7,0,0,0,.781.781C85.357,174.862,86.017,174.862,86.671,174.862ZM81.338,172.9V174.7c0,.049.01.093.015.156.5,0,.982,0,1.465,0a.493.493,0,0,0,.288-.112.326.326,0,0,0,.112-.234c.01-.728,0-1.455,0-2.183a.327.327,0,0,0-.1-.234.633.633,0,0,0-.977.313.537.537,0,0,1-.674.479A.822.822,0,0,0,81.338,172.9Zm-3.374.376c.752,0,.566.049.938-.493a.762.762,0,0,0,0-.938.855.855,0,0,0-.855-.5.87.87,0,0,0-.859.493.821.821,0,0,0,0,.967C77.4,173.153,77.6,173.393,77.964,173.28Zm.693-3.248c0,.039,0,.083,0,.122a10.351,10.351,0,0,0,1.553.059.921.921,0,0,0,.669-1.279c-.156-.381-.313-.762-.479-1.138-.024-.059-.1-.1-.146-.142a.659.659,0,0,0-.024.19.367.367,0,0,1-.41.459c-.2-.015-.386-.044-.581-.059-.122-.01-.249,0-.41,0,.049.054.059.073.068.073.249.024.5.044.747.078a.381.381,0,0,1,.386.454.371.371,0,0,1-.454.352c-.244-.02-.483-.054-.723-.078a2.736,2.736,0,0,0-.283,0v.073c.317.034.63.073.947.107s.459.176.435.435c-.024.278-.2.4-.513.361C79.165,170.072,78.911,170.052,78.657,170.033Zm-.19-4.17v1.289h.864c.093-.483.186-.933.269-1.377Zm-4.644-2.6h2.53c.029,0,.063-.01.112-.015a.294.294,0,0,0-.327-.283H74.169A.32.32,0,0,0,73.822,163.259ZM84.532,165H83.213A.778.778,0,0,0,84.532,165Z"
        transform="translate(-68.9 -150.683)" fill="#fdfdfd" />
    <path id="Path_1367"
        d="M324.509,355.658c.405,0,.811,0,1.221,0a.734.734,0,0,1,.781.962,2.041,2.041,0,0,1-3.98.288,1.929,1.929,0,0,1-.073-.332.726.726,0,0,1,.791-.913C323.664,355.653,324.089,355.658,324.509,355.658Zm1.26.762H323.2a1.284,1.284,0,0,0,2.564,0Z"
        transform="translate(-310.063 -345.646)" fill="#fdfdfd" />
    <path id="Path_1368"
        d="M489.966,304.156a1.211,1.211,0,0,1-.625,1.148.337.337,0,0,1-.469-.117.317.317,0,0,1,.059-.474c.342-.22.317-.513.215-.83a.359.359,0,0,1,.176-.474.343.343,0,0,1,.5.186A4.2,4.2,0,0,1,489.966,304.156Z"
        transform="translate(-468.288 -295.907)" fill="#fdfdfd" />
    <path id="Path_1369"
        d="M350.875,315.346c.083.015.132.024.176.034a.341.341,0,0,1,.3.357.351.351,0,0,1-.3.361c-.591.1-.942-.215-.9-.7.01-.127,0-.259,0-.386a.349.349,0,0,1,.342-.342.361.361,0,0,1,.381.332A2.685,2.685,0,0,1,350.875,315.346Z"
        transform="translate(-336.405 -306.657)" fill="#fdfdfd" />
    <path id="Path_1370"
        d="M299.59,306.669c0-.107-.01-.21,0-.317a.373.373,0,0,1,.371-.352.349.349,0,0,1,.361.352,5.006,5.006,0,0,1,0,.606.368.368,0,0,1-.366.376.375.375,0,0,1-.371-.376,1.9,1.9,0,0,1,0-.288Z"
        transform="translate(-288.319 -298.415)" fill="#fdfdfd" />
    <path id="Path_1371"
        d="M411.009,306.767c0,.107,0,.21,0,.317a.343.343,0,0,1-.342.342.352.352,0,0,1-.381-.332,4.877,4.877,0,0,1,0-.654.364.364,0,0,1,.728.015c0,.1,0,.205,0,.313Z"
        transform="translate(-393.604 -298.508)" fill="#fdfdfd" />
    <path id="Path_1372"
        d="M158.819,440.984a2.623,2.623,0,0,0,.078-.459.605.605,0,0,0-.112-.337c-.088-.122-.225-.21-.327-.327a.519.519,0,0,1,.3-.889,1.007,1.007,0,0,0,.967-.693.51.51,0,0,1,.933,0,1.013,1.013,0,0,0,.967.693.505.505,0,0,1,.3.879,1.021,1.021,0,0,0-.376,1.128.509.509,0,0,1-.752.547,1,1,0,0,0-1.192,0A.54.54,0,0,1,158.819,440.984Zm.791-.322a1.2,1.2,0,0,1,1.162,0,.766.766,0,0,1,.313-1.035.82.82,0,0,1-.9-.645.818.818,0,0,1-.894.65A.776.776,0,0,1,159.611,440.662Z"
        transform="translate(-153.941 -423.945)" fill="#fdfdfd" />
    <path id="Path_1373"
        d="M96.767,559.193a1.226,1.226,0,0,1,1.6-.059,1.137,1.137,0,0,1,.122,1.665c-.43.454-.884.884-1.338,1.314a.506.506,0,0,1-.776-.015c-.42-.405-.84-.811-1.255-1.226a1.142,1.142,0,0,1-.1-1.582,1.193,1.193,0,0,1,1.621-.2C96.684,559.124,96.718,559.159,96.767,559.193Zm0,2.373c.42-.449.776-.835,1.138-1.221a.411.411,0,0,0,.034-.591.443.443,0,0,0-.635-.029c-.088.073-.166.156-.249.234a.368.368,0,0,1-.576,0,3.245,3.245,0,0,0-.269-.249.438.438,0,0,0-.615.044.414.414,0,0,0,.029.591C95.991,560.726,96.352,561.112,96.772,561.566Z"
        transform="translate(-93.48 -538.93)" fill="#fdfdfd" />
</svg>
