<svg id="men_suit" data-name="men suit" xmlns="http://www.w3.org/2000/svg" width="21.082"
    height="22.796" viewBox="0 0 21.082 22.796">
    <path id="Path_1374"
        d="M126.212,245.718a.754.754,0,0,1,.522.873c-.059.427.107.623.5.79,1.175.487,2.327,1.033,3.491,1.549a3.2,3.2,0,0,1,1.371,1.1,8.86,8.86,0,0,1,1.383,2.422,16.258,16.258,0,0,1,.5,2.315c.22,1.526.433,3.051.57,4.589.1,1.122.083,2.25.107,3.378a.351.351,0,0,1-.362.392c-.2-.012-.309-.172-.315-.41-.024-1.039-.006-2.078-.083-3.111-.077-1.051-.232-2.09-.368-3.135-.125-.938-.267-1.876-.416-2.814a5.463,5.463,0,0,0-.879-2.191c-.237-.35-.457-.706-.718-1.116-.119.338-.226.623-.315.914a10.386,10.386,0,0,0-.332,4.055c.166,1.769.4,3.538.522,5.307.083,1.241.012,2.493.006,3.734v1.917h2.446c.024-.582.048-1.158.071-1.739a1.63,1.63,0,0,1,.012-.243.322.322,0,0,1,.362-.285.3.3,0,0,1,.3.321c-.018.706-.047,1.407-.071,2.113a.24.24,0,0,1-.03.148c-.291.38-.154.825-.2,1.241-.053.487-.22.665-.718.665h-18.9c-.493,0-.677-.172-.706-.677-.012-.19-.024-.386-.03-.576a.812.812,0,0,0-.142-.588.447.447,0,0,1-.071-.273c-.053-1.739-.154-3.485-.142-5.224.006-1.128.166-2.262.285-3.384.107-1.009.243-2.012.386-3.022a8.414,8.414,0,0,1,.772-2.944c.344-.629.748-1.229,1.152-1.823a3.126,3.126,0,0,1,1.342-1.069c1.264-.564,2.523-1.134,3.787-1.7.148-.065.226-.143.2-.315-.012-.107.006-.226-.006-.332a.783.783,0,0,1,.528-.873C123.422,245.718,124.817,245.718,126.212,245.718Zm-8.7,22.108a.441.441,0,0,0,.089.018h4.874a.321.321,0,0,0,.208-.095,6.758,6.758,0,0,0,1.49-2.3.361.361,0,0,0,.006-.249,7.572,7.572,0,0,1-.4-2.974c.006-.249.131-.386.338-.392s.344.142.344.4c.006.309,0,.623.006.932a5.091,5.091,0,0,0,.73,2.553,10.317,10.317,0,0,0,1.65,1.977.505.505,0,0,0,.321.137c1.1.012,2.208.006,3.319.006h.214a.687.687,0,0,0,0-.113c-.374-1.733-.754-3.473-1.128-5.206a5.121,5.121,0,0,1-.249-1.793c.178-1.217.374-2.428.564-3.645a14.29,14.29,0,0,0,.285-2.98,9.064,9.064,0,0,1,.76-4.09c.059-.142.018-.208-.095-.261l-1.407-.659a.645.645,0,0,0-.113-.03,3.191,3.191,0,0,1-.2.623.875.875,0,0,0-.065.748,1.408,1.408,0,0,1-.172,1.27q-2.164,3.473-4.3,6.964a.912.912,0,0,0-.119.433c-.018.481-.006.962-.006,1.449,0,.166-.053.326-.226.368a.418.418,0,0,1-.338-.077.507.507,0,0,1-.113-.338c-.012-.481,0-.962-.012-1.448a.667.667,0,0,0-.1-.35c-.938-1.532-1.882-3.051-2.826-4.577a1.314,1.314,0,0,1-.137-.232.321.321,0,0,1,.142-.421.311.311,0,0,1,.421.077,1.424,1.424,0,0,1,.125.184c.5.813,1,1.627,1.508,2.44.036.059.077.119.142.22-.006-.083-.006-.113-.012-.143-.368-1.633-.742-3.259-1.1-4.892a.252.252,0,0,0-.208-.214,1.181,1.181,0,0,1-.9-.831,3.007,3.007,0,0,1,.131-2.185c-.38.178-.73.321-1.057.5a.558.558,0,0,0-.184.766,1.428,1.428,0,0,1,.1,1.259.713.713,0,0,0,.095.677c.178.267.338.54.5.813.154.249.137.451-.042.564s-.368.053-.528-.2c-.142-.232-.279-.475-.433-.7a1.522,1.522,0,0,1-.22-1.454.949.949,0,0,0-.006-.5c-.071-.267-.184-.522-.291-.813-.469.22-.968.457-1.472.695-.142.065-.178.148-.107.315a10.086,10.086,0,0,1,.76,4.714,2.507,2.507,0,0,0,0,.558c.237,1.532.487,3.057.73,4.583a4.221,4.221,0,0,1,.077,1.591c-.3,1.377-.594,2.749-.89,4.126C117.829,266.347,117.675,267.077,117.515,267.825Zm-.677-1.537v-1.817c-.006-1.288-.077-2.582.006-3.871.113-1.763.35-3.52.516-5.283a10.365,10.365,0,0,0-.332-4.049c-.089-.291-.2-.576-.3-.867l-.083-.018c-.392.677-.831,1.336-1.164,2.036a9.172,9.172,0,0,0-.629,2.826c-.137,1.027-.279,2.054-.386,3.087-.1,1.015-.226,2.036-.232,3.057-.006,1.561.083,3.129.137,4.69,0,.065.018.131.024.2C115.223,266.288,116.031,266.288,116.838,266.288Zm7.243-8.75c.053-.042.071-.048.071-.059a59.289,59.289,0,0,0,1.5-6.322.224.224,0,0,0-.089-.166,6.513,6.513,0,0,0-.665-.362.4.4,0,0,0-.3,0,1.041,1.041,0,0,1-.98-.006.393.393,0,0,0-.273-.006c-.22.1-.427.231-.647.344a.175.175,0,0,0-.113.237c.243,1.1.451,2.214.712,3.318C123.534,255.531,123.813,256.516,124.08,257.537Zm3.206-9.409a3.006,3.006,0,0,1,.131,2.185,1.16,1.16,0,0,1-.885.825.265.265,0,0,0-.232.243q-.5,2.262-1.009,4.524c-.03.143-.071.285-.1.422a.106.106,0,0,0,.083-.059q1.541-2.493,3.087-4.987a.674.674,0,0,0,.065-.617,1.46,1.46,0,0,1,.107-1.282.571.571,0,0,0-.249-.8C127.969,248.425,127.648,248.294,127.286,248.128Zm-5.111-1.733c0,.38,0,.742.006,1.1a.164.164,0,0,0,.077.119c.374.19.754.38,1.134.552a.283.283,0,0,0,.22-.012,1.028,1.028,0,0,1,1.021-.006.318.318,0,0,0,.255,0c.368-.166.73-.35,1.092-.534a.164.164,0,0,0,.083-.107c.006-.368.006-.736.006-1.116Zm2.921,2.992a3.717,3.717,0,0,0,.006.445.294.294,0,0,0,.107.19c.249.148.5.285.76.416a.558.558,0,0,0,.807-.332,2.3,2.3,0,0,0,0-1.443.553.553,0,0,0-.79-.332c-.125.059-.243.148-.374.2C125.2,248.68,124.953,248.918,125.1,249.387Zm-1.959.083c0-.232.006-.386-.006-.54a.211.211,0,0,0-.083-.154c-.267-.154-.54-.315-.819-.445a.538.538,0,0,0-.76.321,2.233,2.233,0,0,0-.006,1.484.549.549,0,0,0,.778.321c.137-.059.255-.154.392-.208C123.042,250.093,123.267,249.85,123.137,249.47Zm-5.331,8.555c-.024.006-.047.006-.071.012-.089,1.063-.208,2.119-.249,3.188s.006,2.119.012,3.176h.065c.184-.843.362-1.686.546-2.529a3.4,3.4,0,0,0,.113-1.27c-.083-.534-.166-1.069-.255-1.6C117.918,258.671,117.865,258.351,117.806,258.024Zm12.639-.018a.96.96,0,0,0-.047.137c-.107.659-.214,1.312-.315,1.971a3.521,3.521,0,0,0-.053,1.342c.119.516.226,1.039.338,1.561l.3,1.389A28.2,28.2,0,0,0,130.444,258.006Zm-5.806,8.181c-.344.534-.706,1.1-1.057,1.644h2.392C125.517,267.267,125.072,266.715,124.639,266.187Zm-7.949.8h-2.1c.018.291.036.57.047.849h2.1C116.719,267.552,116.707,267.279,116.69,266.988Zm14.806.843h2.1c.012-.285.03-.564.042-.843h-2.1C131.525,267.273,131.513,267.546,131.5,267.831Zm-7.07-18.445c0-.125.006-.249,0-.374a.293.293,0,0,0-.3-.315.287.287,0,0,0-.315.3c-.012.255-.012.516,0,.772a.293.293,0,0,0,.309.309.3.3,0,0,0,.3-.315A2.708,2.708,0,0,0,124.425,249.387Z"
        transform="translate(-113.584 -245.7)" fill="#fdfdfd" />
    <path id="Path_1375"
        d="M330.381,400.55c.065.012.107.012.148.024a.318.318,0,0,1,.243.368.3.3,0,0,1-.315.285c-.843.006-1.692.006-2.535,0a.314.314,0,0,1-.327-.321.336.336,0,0,1,.3-.344.529.529,0,0,0,.273-.142c.344-.386.677-.784,1.015-1.181.255-.3.487-.386.772-.285s.416.315.416.706C330.381,399.951,330.381,400.242,330.381,400.55Zm-.695.006V399.7c-.255.3-.481.564-.73.855Z"
        transform="translate(-314.892 -389.817)" fill="#fdfdfd" />
    <path id="Path_1376" d="M285.648,340.78a.342.342,0,1,1,.332-.35A.365.365,0,0,1,285.648,340.78Z"
        transform="translate(-275.104 -334.493)" fill="#fdfdfd" />
    <path id="Path_1377"
        d="M285.96,367.938a.344.344,0,0,1-.368.309.339.339,0,0,1-.315-.362.347.347,0,0,1,.368-.309A.355.355,0,0,1,285.96,367.938Z"
        transform="translate(-275.083 -360.34)" fill="#fdfdfd" />
    <path id="Path_1378"
        d="M285.622,395.1a.339.339,0,0,1,.35.326.342.342,0,0,1-.683.018A.334.334,0,0,1,285.622,395.1Z"
        transform="translate(-275.096 -386.228)" fill="#fdfdfd" />
</svg>
