<svg xmlns="http://www.w3.org/2000/svg" width="40.917" height="37.422" viewBox="0 0 40.917 37.422">
  <g id="wallet_fill" data-name="wallet fill" transform="translate(-114.7 -221.085)">
    <path id="Path_1492" data-name="Path 1492" d="M155.707,296.324v4.954a1.943,1.943,0,0,0-.075.266,5.487,5.487,0,0,1-5.337,4.613q-15.036.016-30.073,0a5.464,5.464,0,0,1-5.1-3.686c-.138-.384-.213-.788-.32-1.193V279.3a1.834,1.834,0,0,0,.075-.224,5.507,5.507,0,0,1,5.4-4.645q14.972-.016,29.956,0a5.49,5.49,0,0,1,5.167,3.718c.128.373.213.767.309,1.15v5.2a.453.453,0,0,0-.117-.021c-3.675,0-7.35-.064-11.015.021a5.9,5.9,0,0,0,.394,11.793c3.42.011,6.839,0,10.259,0Z" transform="translate(-0.089 -47.658)" fill="#7856a3"/>
    <path id="Path_1493" data-name="Path 1493" d="M114.711,225.976c.053-.245.107-.49.17-.735a5.494,5.494,0,0,1,5.241-4.144q13.023-.016,26.035,0a5.319,5.319,0,0,1,4.677,2.716c.064.107.117.234.2.383h-.831q-14.941,0-29.87-.011a8.179,8.179,0,0,0-5.635,2.173C114.711,226.242,114.711,226.114,114.711,225.976Z" transform="translate(0)" fill="#7856a3"/>
    <path id="Path_1494" data-name="Path 1494" d="M380.213,399.686c-.479.011-.959.021-1.438.021-3.089,0-6.168.011-9.257,0a3.325,3.325,0,1,1-.16-6.647c3.622-.011,7.233,0,10.855,0Zm-11.675-3.217a1.337,1.337,0,1,0,2.674.011,1.337,1.337,0,0,0-1.342-1.342A1.319,1.319,0,0,0,368.538,396.469Z" transform="translate(-224.596 -153.651)" fill="#7856a3"/>
  </g>
</svg>
