<svg id="women_dress" data-name="women dress" xmlns="http://www.w3.org/2000/svg" width="15.108"
    height="24.204" viewBox="0 0 15.108 24.204">
    <path id="Path_1379"
        d="M183.327,251.922a.5.5,0,0,1-.233-.479,22.979,22.979,0,0,1,4.258-13.063c.025-.038.076-.076.076-.113a13.015,13.015,0,0,0-.05-1.31,2.54,2.54,0,0,0-.227-.592.354.354,0,0,1,.183-.51.323.323,0,0,1,.466.227c.113.535.435.611.932.6,1.43-.038,2.866-.019,4.3-.006a.264.264,0,0,0,.29-.2c.233-.554.472-1.115.737-1.657a4.947,4.947,0,0,1,.51-.787,2.648,2.648,0,0,0,.321-2.986,7.022,7.022,0,0,1-.743-2.387,1.181,1.181,0,0,0-.05-.2h-.3a2.964,2.964,0,0,1-1.172,2.154,3.192,3.192,0,0,1-1.94.63,3.262,3.262,0,0,1-1.505-.328,2.956,2.956,0,0,1-1.172-1,3.253,3.253,0,0,1-.51-1.461h-.309c-.057.315-.126.617-.17.926a3.914,3.914,0,0,1-.491,1.392,2.79,2.79,0,0,0,.3,3.389,3.42,3.42,0,0,1,.359.579.349.349,0,0,1-.132.491.365.365,0,0,1-.5-.164q-.217-.331-.454-.661a3.315,3.315,0,0,1-.378-3.622,8.588,8.588,0,0,0,.762-2.576c.063-.4.151-.441.554-.479a2.587,2.587,0,0,1,1.713.485,3.37,3.37,0,0,0,3.741.044c.025-.019.057-.032.082-.05a2.247,2.247,0,0,1,1.808-.472.36.36,0,0,1,.372.321c.076.409.126.825.233,1.228a5.178,5.178,0,0,0,.409,1.146,3.577,3.577,0,0,1-.365,4.176,6.5,6.5,0,0,0-.6,1.09c-.094.183-.151.384-.246.561a3.156,3.156,0,0,0-.334,1.871.628.628,0,0,0,.107.271c.334.516.674,1.02,1.008,1.537a.374.374,0,0,1-.063.561c-.189.12-.4.05-.548-.189-.309-.472-.617-.951-.932-1.417a.362.362,0,0,0-.258-.145c-1.669-.006-3.338-.006-5.007-.013a.326.326,0,0,0-.3.183,21.936,21.936,0,0,0-3.206,6.758,20.832,20.832,0,0,0-.813,5.133v.214c.271-.107.523-.208.775-.3a2.892,2.892,0,0,1,.586-.158c.157-.019.208-.076.22-.227a22.826,22.826,0,0,1,.787-4.207c.088-.3.183-.6.277-.9.088-.271.258-.372.466-.3s.283.246.214.516c-.271,1.064-.554,2.123-.794,3.2-.132.6-.183,1.222-.265,1.833.586.157,1.127.328,1.682.453a2.58,2.58,0,0,0,1.392-.151,6.56,6.56,0,0,1,.838-.22c.183-.031.151-.145.151-.258v-4.535a.367.367,0,0,1,.346-.4c.208-.006.353.157.359.409V250.5c.535.151,1.033.309,1.537.435a2.372,2.372,0,0,0,1.323-.094c.365-.12.731-.239,1.14-.372-.063-.485-.113-1-.189-1.512a22.58,22.58,0,0,0-.863-3.59c-.094-.277-.013-.466.214-.535.208-.069.384.044.466.309a22.329,22.329,0,0,1,1.046,5.014c.019.227.069.334.346.378a8.705,8.705,0,0,1,1.235.378c.1.031.2.076.34.126-.031-.5-.038-.97-.088-1.436a21.757,21.757,0,0,0-1.316-5.65c-.3-.768-.655-1.512-.976-2.267-.044-.1-.12-.227-.088-.309a.549.549,0,0,1,.265-.315c.183-.082.334.025.422.2.22.466.454.932.655,1.411a22.479,22.479,0,0,1,1.65,5.952c.12.926.139,1.864.208,2.8a.479.479,0,0,1-.233.5h-.283c-.334-.139-.674-.277-1.008-.422a3.1,3.1,0,0,0-2.557-.032,3.2,3.2,0,0,1-2.438.013,3,3,0,0,0-2.312-.006,2.925,2.925,0,0,1-1.688.17c-.391-.082-.768-.22-1.153-.328a4.138,4.138,0,0,0-2.916.611Zm4.988-23.109a2.32,2.32,0,0,0,2.519,1.707,2.221,2.221,0,0,0,2.116-1.682A4.264,4.264,0,0,1,188.316,228.813Zm4.787,8.6h-4.919V238H193.1Z"
        transform="translate(-183.094 -227.718)" fill="#fff" />
</svg>
